<?xml version="1.0" encoding="UTF-8"?>
<svg version="1.1" xmlns="http://www.w3.org/2000/svg" width="500" height="500">
<path d="M0 0 C0.69420044 0.1020575 1.38840088 0.20411499 2.1036377 0.30926514 C25.57448879 3.83190812 25.57448879 3.83190812 35 10.375 C36.30324219 11.26058594 36.30324219 11.26058594 37.6328125 12.1640625 C38.74269531 12.94910156 38.74269531 12.94910156 39.875 13.75 C40.865 14.41 41.855 15.07 42.875 15.75 C42.875 16.41 42.875 17.07 42.875 17.75 C43.535 17.75 44.195 17.75 44.875 17.75 C44.875 18.41 44.875 19.07 44.875 19.75 C45.535 19.75 46.195 19.75 46.875 19.75 C48.328125 21.33984375 48.328125 21.33984375 50.125 23.6875 C52.84165875 27.1860753 55.59572627 30.631786 58.4453125 34.0234375 C59.38455566 35.14504272 59.38455566 35.14504272 60.34277344 36.28930664 C61.59938125 37.78703774 62.86035375 39.28111926 64.12597656 40.77124023 C67.04961796 44.27356933 69.56100698 47.29118369 70.875 51.75 C71.535 51.75 72.195 51.75 72.875 51.75 C82.91863831 64.20100522 87.00575977 78.09151749 86.875 93.75 C86.89046875 95.16925781 86.89046875 95.16925781 86.90625 96.6171875 C86.52668713 107.52962009 82.78668033 118.2939978 79.875 128.75 C81.855 129.74 83.835 130.73 85.875 131.75 C85.875 132.41 85.875 133.07 85.875 133.75 C86.535 133.75 87.195 133.75 87.875 133.75 C89.16718242 140.01883093 88.50206375 145.57246128 87.625 151.875 C87.48441162 152.94121582 87.34382324 154.00743164 87.19897461 155.10595703 C86.21879639 162.46906018 85.14252579 169.81771215 84.06469727 177.16699219 C82.91846889 185.13607776 81.98556084 193.12772402 81.0625 201.125 C79.43939803 215.15682912 77.72135946 229.17518323 75.9375 243.1875 C75.80953033 244.193573 75.68156067 245.199646 75.54971313 246.23620605 C73.81397079 259.84224354 71.93828072 273.42063924 69.93826294 286.99002075 C68.32198622 298.01162693 67.02646122 309.04576905 65.875 320.125 C64.59851191 332.36111757 63.22951575 344.57946172 61.6340332 356.77862549 C61.42163057 358.41119855 61.21322042 360.04429658 61.0090332 361.67791748 C60.72461764 363.94321828 60.42507191 366.20600206 60.12109375 368.46875 C59.95279053 369.75716797 59.7844873 371.04558594 59.61108398 372.37304688 C58.86839213 375.78031512 57.92624843 377.95117834 55.875 380.75 C53.6875 382.0625 53.6875 382.0625 51.875 382.75 C51.875 383.41 51.875 384.07 51.875 384.75 C40.06812098 391.8632802 28.33928802 394.71168198 14.875 396.75 C13.13669922 397.02070312 13.13669922 397.02070312 11.36328125 397.296875 C7.51795445 397.79637994 3.68182795 398.09547826 -0.1875 398.3125 C-1.30330444 398.3751001 -1.30330444 398.3751001 -2.44165039 398.43896484 C-29.16029974 399.83784701 -62.91378956 399.85788845 -86.125 384.75 C-91.44099953 379.83728319 -94.07439776 376.03827904 -94.89355469 368.85205078 C-95.03770813 367.60555756 -95.18186157 366.35906433 -95.3303833 365.07479858 C-95.40620888 364.40354321 -95.48203445 363.73228783 -95.56015778 363.04069138 C-95.79980747 360.91935482 -96.04393512 358.7985759 -96.28924561 356.67788696 C-96.63877927 353.65275953 -96.98648633 350.6274306 -97.33276367 347.60192871 C-98.23570236 339.7201817 -99.15455848 331.84029138 -100.078125 323.9609375 C-100.16861115 323.1887236 -100.25909729 322.4165097 -100.35232544 321.62089539 C-101.65069104 310.56176656 -103.02796175 299.52033406 -104.625 288.5 C-106.97286241 272.28959478 -109.01512281 256.04262265 -111.04238892 239.78962708 C-111.30842325 237.6576704 -111.57504088 235.52578739 -111.84179688 233.3939209 C-113.47184871 220.35937617 -115.09385042 207.32605563 -116.50616455 194.26585388 C-117.05750079 189.21426449 -117.74861274 184.2025576 -118.5625 179.1875 C-119.78601305 171.30810775 -120.84353366 163.41467477 -121.8125 155.5 C-121.94390381 154.45255615 -122.07530762 153.4051123 -122.21069336 152.32592773 C-123.99193233 137.48386466 -123.99193233 137.48386466 -122.125 133.75 C-121.465 133.75 -120.805 133.75 -120.125 133.75 C-120.125 133.09 -120.125 132.43 -120.125 131.75 C-118.125 130.125 -118.125 130.125 -116.125 128.75 C-116.558125 127.72519531 -116.558125 127.72519531 -117 126.6796875 C-124.34953012 106.72367169 -119.29109711 87.30943362 -113.125 67.75 C-112.71725342 66.40953613 -112.71725342 66.40953613 -112.30126953 65.04199219 C-105.10288917 41.37771818 -94.46821814 26.96746651 -72.53076172 14.82641602 C-68.84586059 12.77863663 -65.31628761 10.5923955 -61.81982422 8.23779297 C-41.76522574 -5.17466008 -22.90688093 -3.41406205 0 0 Z " fill="#FEFEFE" transform="translate(267.125,56.25)"/>
<path d="M0 0 C0.69420044 0.1020575 1.38840088 0.20411499 2.1036377 0.30926514 C25.57448879 3.83190812 25.57448879 3.83190812 35 10.375 C36.30324219 11.26058594 36.30324219 11.26058594 37.6328125 12.1640625 C38.74269531 12.94910156 38.74269531 12.94910156 39.875 13.75 C40.865 14.41 41.855 15.07 42.875 15.75 C42.875 16.41 42.875 17.07 42.875 17.75 C43.535 17.75 44.195 17.75 44.875 17.75 C44.875 18.41 44.875 19.07 44.875 19.75 C45.535 19.75 46.195 19.75 46.875 19.75 C48.328125 21.33984375 48.328125 21.33984375 50.125 23.6875 C52.84165875 27.1860753 55.59572627 30.631786 58.4453125 34.0234375 C59.38455566 35.14504272 59.38455566 35.14504272 60.34277344 36.28930664 C61.59938125 37.78703774 62.86035375 39.28111926 64.12597656 40.77124023 C67.04961796 44.27356933 69.56100698 47.29118369 70.875 51.75 C71.535 51.75 72.195 51.75 72.875 51.75 C84.98667822 66.76473512 88.31288776 83.88809288 86.3984375 102.64453125 C85.3616169 108.79581762 83.63117898 114.77082319 81.875 120.75 C81.215 120.75 80.555 120.75 79.875 120.75 C79.875 121.41 79.875 122.07 79.875 122.75 C79.215 122.75 78.555 122.75 77.875 122.75 C77.978125 123.925625 78.08125 125.10125 78.1875 126.3125 C78.24496502 133.48413465 75.32344608 140.11296224 72.875 146.75 C72.215 146.75 71.555 146.75 70.875 146.75 C71.535 148.73 72.195 150.71 72.875 152.75 C72.25625 152.811875 71.6375 152.87375 71 152.9375 C70.29875 153.205625 69.5975 153.47375 68.875 153.75 C68.61332031 154.46285156 68.35164062 155.17570313 68.08203125 155.91015625 C60.54119611 173.65186222 38.38792223 184.54556697 21.875 191.75 C2.67014461 199.39601604 2.67014461 199.39601604 -7.125 197.75 C-10.27391239 196.28163924 -13.1112596 194.55430231 -16.04296875 192.69140625 C-19.06520999 190.7876624 -22.11497478 189.15110529 -25.3125 187.5625 C-26.30507812 187.06878906 -27.29765625 186.57507813 -28.3203125 186.06640625 C-30.75092019 184.92557785 -33.1823495 183.95837608 -35.6875 183 C-40.88955099 180.78133942 -44.50204419 176.86286005 -48.5703125 173.03125 C-53.36307967 168.75147014 -57.29641867 167.74487415 -63.6875 167.375 C-67.32287708 167.12032386 -69.77248811 166.81306065 -72.6875 164.5625 C-75.21867483 161.64191366 -76.25569882 159.48799506 -77.125 155.75 C-78.7646875 155.7809375 -78.7646875 155.7809375 -80.4375 155.8125 C-84.125 155.75 -84.125 155.75 -87.125 154.75 C-86.795 155.430625 -86.465 156.11125 -86.125 156.8125 C-84.53328172 161.48817246 -84.39052851 165.18090183 -86.5 169.6875 C-87.03625 170.368125 -87.5725 171.04875 -88.125 171.75 C-88.785 171.75 -89.445 171.75 -90.125 171.75 C-91.66174364 169.86318735 -93.09161069 167.97910917 -94.5 166 C-100.63100011 157.51073923 -100.63100011 157.51073923 -110.125 153.75 C-109.02044215 159.77486099 -108.28087575 162.14088697 -103.125 165.75 C-100.36345504 169.43205995 -100.84456573 173.33316019 -101.125 177.75 C-101.785 178.74 -102.445 179.73 -103.125 180.75 C-103.785 180.75 -104.445 180.75 -105.125 180.75 C-105.125 181.41 -105.125 182.07 -105.125 182.75 C-105.785 183.08 -106.445 183.41 -107.125 183.75 C-105.53779218 201.96735548 -103.0853966 220.07982903 -100.71679688 238.20800781 C-100.20545829 242.12479596 -99.70237848 246.04258836 -99.203125 249.9609375 C-98.94793927 251.95312789 -98.69273314 253.94531568 -98.4375 255.9375 C-98.33058838 256.7828833 -98.22367676 257.6282666 -98.11352539 258.49926758 C-97.56359872 262.75229142 -96.9267413 266.97672151 -96.19921875 271.203125 C-94.78856732 279.54289623 -93.70656992 287.92488724 -92.625 296.3125 C-92.51483551 297.16240509 -92.40467102 298.01231018 -92.29116821 298.88796997 C-90.36869285 313.81768269 -88.96773191 328.71700474 -88.125 343.75 C-88.77025635 344.03593018 -89.4155127 344.32186035 -90.08032227 344.61645508 C-92.32980504 345.56256169 -92.32980504 345.56256169 -92.83984375 347.88671875 C-93.1939554 351.44238777 -93.47929839 354.99576743 -93.6875 358.5625 C-93.73068359 359.25537109 -93.77386719 359.94824219 -93.81835938 360.66210938 C-93.92361453 362.35788686 -94.02472863 364.05392052 -94.125 365.75 C-94.455 365.75 -94.785 365.75 -95.125 365.75 C-95.20159348 365.09078552 -95.27818695 364.43157104 -95.35710144 363.75238037 C-99.75199042 325.38201898 -99.75199042 325.38201898 -104.84521484 287.10076904 C-107.10765544 271.35443219 -109.0734348 255.570692 -111.04283524 239.7856102 C-111.30865343 237.6558195 -111.57502728 235.52609894 -111.84152222 233.39639282 C-113.47168346 220.3610272 -115.09376142 207.32687868 -116.50616455 194.26585388 C-117.05750079 189.21426449 -117.74861274 184.2025576 -118.5625 179.1875 C-119.78601305 171.30810775 -120.84353366 163.41467477 -121.8125 155.5 C-121.94390381 154.45255615 -122.07530762 153.4051123 -122.21069336 152.32592773 C-123.99193233 137.48386466 -123.99193233 137.48386466 -122.125 133.75 C-121.465 133.75 -120.805 133.75 -120.125 133.75 C-120.125 133.09 -120.125 132.43 -120.125 131.75 C-118.125 130.125 -118.125 130.125 -116.125 128.75 C-116.558125 127.72519531 -116.558125 127.72519531 -117 126.6796875 C-124.34953012 106.72367169 -119.29109711 87.30943362 -113.125 67.75 C-112.71725342 66.40953613 -112.71725342 66.40953613 -112.30126953 65.04199219 C-105.10288917 41.37771818 -94.46821814 26.96746651 -72.53076172 14.82641602 C-68.84586059 12.77863663 -65.31628761 10.5923955 -61.81982422 8.23779297 C-41.76522574 -5.17466008 -22.90688093 -3.41406205 0 0 Z " fill="#C68144" transform="translate(267.125,56.25)"/>
<path d="M0 0 C1.09658936 3.28976808 0.79953138 4.71303767 0 8 C1.98 8.99 3.96 9.98 6 11 C6 11.66 6 12.32 6 13 C6.66 13 7.32 13 8 13 C9.29218242 19.26883093 8.62706375 24.82246128 7.75 31.125 C7.60941162 32.19121582 7.46882324 33.25743164 7.32397461 34.35595703 C6.34379639 41.71906018 5.26752579 49.06771215 4.18969727 56.41699219 C3.04346889 64.38607776 2.11056084 72.37772402 1.1875 80.375 C-0.43560197 94.40682912 -2.15364054 108.42518323 -3.9375 122.4375 C-4.06546967 123.443573 -4.19343933 124.449646 -4.32528687 125.48620605 C-6.06102921 139.09224354 -7.93671928 152.67063924 -9.93673706 166.24002075 C-11.55301378 177.26162693 -12.84853878 188.29576905 -14 199.375 C-15.27648809 211.61111757 -16.64548425 223.82946172 -18.2409668 236.02862549 C-18.45336943 237.66119855 -18.66177958 239.29429658 -18.8659668 240.92791748 C-19.15038236 243.19321828 -19.44992809 245.45600206 -19.75390625 247.71875 C-19.92220947 249.00716797 -20.0905127 250.29558594 -20.26391602 251.62304688 C-21.00660787 255.03031512 -21.94875157 257.20117834 -24 260 C-26.1875 261.3125 -26.1875 261.3125 -28 262 C-28 262.66 -28 263.32 -28 264 C-39.80687902 271.1132802 -51.53571198 273.96168198 -65 276 C-66.73830078 276.27070312 -66.73830078 276.27070312 -68.51171875 276.546875 C-72.35704555 277.04637994 -76.19317205 277.34547826 -80.0625 277.5625 C-81.17830444 277.6251001 -81.17830444 277.6251001 -82.31665039 277.68896484 C-109.03529974 279.08784701 -142.78878956 279.10788845 -166 264 C-173.82792548 256.76591714 -173.82792548 256.76591714 -174.14526367 251.66503906 C-174.16984069 248.52658079 -174.18566243 245.3885622 -174.1875 242.25 C-174.19974609 241.16460937 -174.21199219 240.07921875 -174.22460938 238.9609375 C-174.24378747 228.50248382 -174.24378747 228.50248382 -172 224 C-170.515 223.01 -170.515 223.01 -169 222 C-168.74984127 218.41642759 -168.74984127 218.41642759 -169 215 C-168.67 215 -168.34 215 -168 215 C-167.77957031 216.59328125 -167.77957031 216.59328125 -167.5546875 218.21875 C-165.82197549 229.78408812 -165.82197549 229.78408812 -159 239 C-158.36964844 239.59941406 -157.73929688 240.19882812 -157.08984375 240.81640625 C-142.00308084 253.13593222 -118.74991031 254.35262089 -100.14624023 254.26074219 C-97.57056055 254.25003351 -94.99558032 254.2606855 -92.41992188 254.2734375 C-80.52685191 254.28430835 -69.12852226 253.50766671 -57.6875 250 C-52.81158353 248.53994903 -47.9487339 247.18769614 -43 246 C-43 245.34 -43 244.68 -43 244 C-40.88785018 242.51367235 -38.68214823 241.23575891 -36.45703125 239.92578125 C-29.91789648 234.80051345 -28.37856824 229.82787703 -27.34106445 221.84716797 C-27.20788818 220.66010254 -27.07471191 219.47303711 -26.9375 218.25 C-26.70389771 216.38625732 -26.70389771 216.38625732 -26.46557617 214.48486328 C-25.95216315 210.32578202 -25.47254853 206.16386288 -25 202 C-24.81891448 200.42347622 -24.63759363 198.84697945 -24.45605469 197.27050781 C-23.36202934 187.75703953 -23.36202934 187.75703953 -22.30639648 178.23925781 C-22.22624298 177.51169281 -22.14608948 176.78412781 -22.06350708 176.03451538 C-21.84574126 174.05435368 -21.63137447 172.07381901 -21.41723633 170.09326172 C-21 167 -21 167 -20 164 C-19.59231658 161.02805226 -19.22098318 158.06159539 -18.87890625 155.08203125 C-18.77408432 154.19198898 -18.66926239 153.30194672 -18.56126404 152.38493347 C-18.22535673 149.52779637 -17.89377948 146.67017704 -17.5625 143.8125 C-17.12734497 140.08972136 -16.69062125 136.36712718 -16.25390625 132.64453125 C-16.1475737 131.73629608 -16.04124115 130.82806091 -15.9316864 129.89230347 C-14.62928621 118.79309379 -13.31883821 107.70010819 -11.57421875 96.66015625 C-10.81791718 91.83937683 -10.09670563 87.01356209 -9.375 82.1875 C-9.239729 81.28418945 -9.10445801 80.38087891 -8.96508789 79.45019531 C-8.64316367 77.30016437 -8.32154843 75.15008717 -8 73 C-8.55042969 73.30292969 -9.10085938 73.60585937 -9.66796875 73.91796875 C-24.2541348 81.2675873 -39.45342285 83.4474208 -55.625 83.5 C-57.50892456 83.50930542 -57.50892456 83.50930542 -59.4309082 83.51879883 C-67.04987331 83.41491537 -73.77165029 82.42863638 -81 80 C-81 79.34 -81 78.68 -81 78 C-82.65 78 -84.3 78 -86 78 C-86 77.67 -86 77.34 -86 77 C-85.23558594 76.91363281 -84.47117187 76.82726562 -83.68359375 76.73828125 C-62.7725741 73.99543992 -40.31598506 64.80639591 -25 50 C-24.03126953 49.12794922 -24.03126953 49.12794922 -23.04296875 48.23828125 C-18.85553921 44.32453991 -15.71460395 39.92204761 -12.578125 35.13671875 C-11 33 -11 33 -8 31 C-8.33 29.35 -8.66 27.7 -9 26 C-8.34 26 -7.68 26 -7 26 C-4.61681525 18.07193875 -3.10815916 10.20037776 -2 2 C-1.34 2 -0.68 2 0 2 C0 1.34 0 0.68 0 0 Z " fill="#C2E0E4" transform="translate(347,177)"/>
<path d="M0 0 C2.35412753 2.35412753 2.83862577 4.55866436 3.85327148 7.6640625 C6.05450422 14.34838423 6.05450422 14.34838423 10.89306641 19.14160156 C15.46527512 20.86969698 20.15419484 21.53461655 25 22 C24.79375 20.88625 24.5875 19.7725 24.375 18.625 C24.25125 17.42875 24.1275 16.2325 24 15 C26 13 26 13 28.3125 12.625 C31.9943681 13.13874904 33.44921881 14.31133874 36 17 C36.72565793 19.31566609 37.39918108 21.64885017 38 24 C56.49504877 26.24417442 74.89662488 26.27539685 93.49090576 26.19561768 C96.67861781 26.18476374 99.86628686 26.18515078 103.05401421 26.18575573 C106.18058429 26.18548086 109.30712795 26.17995092 112.43368912 26.17275429 C113.89973884 26.16963058 115.36579147 26.16761547 116.83184433 26.16686058 C131.517963 26.15098686 145.96956163 25.39830185 160.5 23.125 C161.6547583 22.94936523 162.8095166 22.77373047 163.99926758 22.59277344 C172.70416475 21.25027863 181.36665365 19.74517874 190 18 C189.67 18.99 189.34 19.98 189 21 C188.34 21 187.68 21 187 21 C187.99 23.97 187.99 23.97 189 27 C188.38125 27.061875 187.7625 27.12375 187.125 27.1875 C186.42375 27.455625 185.7225 27.72375 185 28 C184.73832031 28.71285156 184.47664062 29.42570312 184.20703125 30.16015625 C176.66619611 47.90186222 154.51292223 58.79556697 138 66 C118.79514461 73.64601604 118.79514461 73.64601604 109 72 C105.85108761 70.53163924 103.0137404 68.80430231 100.08203125 66.94140625 C97.05979001 65.0376624 94.01002522 63.40110529 90.8125 61.8125 C89.32363281 61.07193359 89.32363281 61.07193359 87.8046875 60.31640625 C85.37407981 59.17557785 82.9426505 58.20837608 80.4375 57.25 C75.23544901 55.03133942 71.62295581 51.11286005 67.5546875 47.28125 C62.76192033 43.00147014 58.82858133 41.99487415 52.4375 41.625 C48.80212292 41.37032386 46.35251189 41.06306065 43.4375 38.8125 C40.90632517 35.89191366 39.86930118 33.73799506 39 30 C37.906875 30.020625 36.81375 30.04125 35.6875 30.0625 C32 30 32 30 29 29 C29.495 30.0209375 29.495 30.0209375 30 31.0625 C31.59171828 35.73817246 31.73447149 39.43090183 29.625 43.9375 C29.08875 44.618125 28.5525 45.29875 28 46 C27.34 46 26.68 46 26 46 C24.46325636 44.11318735 23.03338931 42.22910917 21.625 40.25 C15.49399989 31.76073923 15.49399989 31.76073923 6 28 C7.10455785 34.02486099 7.84412425 36.39088697 13 40 C15.76154496 43.68205995 15.28043427 47.58316019 15 52 C14.34 52.99 13.68 53.98 13 55 C12.34 55 11.68 55 11 55 C11 55.66 11 56.32 11 57 C10.01 57.495 10.01 57.495 9 58 C10.58720782 76.21735548 13.0396034 94.32982903 15.40820312 112.45800781 C15.91954171 116.37479596 16.42262152 120.29258836 16.921875 124.2109375 C17.17706073 126.20312789 17.43226686 128.19531568 17.6875 130.1875 C17.79441162 131.0328833 17.90132324 131.8782666 18.01147461 132.74926758 C18.56140128 137.00229142 19.1982587 141.22672151 19.92578125 145.453125 C21.33643268 153.79289623 22.41843008 162.17488724 23.5 170.5625 C23.61016449 171.41240509 23.72032898 172.26231018 23.83383179 173.13796997 C25.75630715 188.06768269 27.15726809 202.96700474 28 218 C27.35474365 218.28593018 26.7094873 218.57186035 26.04467773 218.86645508 C23.79519496 219.81256169 23.79519496 219.81256169 23.28515625 222.13671875 C22.9310446 225.69238777 22.64570161 229.24576743 22.4375 232.8125 C22.39431641 233.50537109 22.35113281 234.19824219 22.30664062 234.91210938 C22.20138547 236.60788686 22.10027137 238.30392052 22 240 C21.67 240 21.34 240 21 240 C20.88510979 239.01117828 20.88510979 239.01117828 20.76789856 238.00238037 C16.37300958 199.63201898 16.37300958 199.63201898 11.27978516 161.35076904 C9.01734456 145.60443219 7.0515652 129.820692 5.08216476 114.0356102 C4.81634657 111.9058195 4.54997272 109.77609894 4.28347778 107.64639282 C2.65331654 94.6110272 1.03123858 81.57687868 -0.38116455 68.51585388 C-0.93250079 63.46426449 -1.62361274 58.4525576 -2.4375 53.4375 C-3.66101305 45.55810775 -4.71853366 37.66467477 -5.6875 29.75 C-5.81890381 28.70255615 -5.95030762 27.6551123 -6.08569336 26.57592773 C-7.86693233 11.73386466 -7.86693233 11.73386466 -6 8 C-5.34 8 -4.68 8 -4 8 C-4 7.34 -4 6.68 -4 6 C-3.34 5.525625 -2.68 5.05125 -2 4.5625 C-1.34 4.046875 -0.68 3.53125 0 3 C0 2.01 0 1.02 0 0 Z " fill="#C4E0E4" transform="translate(151,182)"/>
<path d="M0 0 C-10.47655625 17.00899721 -24.31102993 28.15249209 -42.1875 36.625 C-43.1983667 37.10428955 -44.2092334 37.5835791 -45.25073242 38.07739258 C-67.56684868 48.44424457 -67.56684868 48.44424457 -78 46 C-81.12814189 44.50857716 -83.99334903 42.79979747 -86.91796875 40.94140625 C-89.94020999 39.0376624 -92.98997478 37.40110529 -96.1875 35.8125 C-97.18007812 35.31878906 -98.17265625 34.82507813 -99.1953125 34.31640625 C-101.62592019 33.17557785 -104.0573495 32.20837608 -106.5625 31.25 C-111.76455099 29.03133942 -115.37704419 25.11286005 -119.4453125 21.28125 C-124.23807967 17.00147014 -128.17141867 15.99487415 -134.5625 15.625 C-138.24558421 15.37169297 -140.67881978 15.03595188 -143.625 12.75 C-146.09985484 9.88437861 -146.45434126 8.61347344 -147 5 C-144.34235718 5.1014019 -141.68472305 5.20302293 -139.02709961 5.30493164 C-136.68548719 5.39453037 -134.34385236 5.48354504 -132.00219727 5.57202148 C-126.19583789 5.79296835 -120.39041809 6.02300118 -114.5859375 6.2890625 C-108.39190588 6.57085486 -102.19697564 6.7944752 -96 7 C-94.64672607 7.05317383 -94.64672607 7.05317383 -93.26611328 7.10742188 C-77.50850219 7.67256218 -61.88707443 6.47867382 -46.1875 5.25 C-45.14295654 5.17149811 -44.09841309 5.09299622 -43.0222168 5.01211548 C-31.18682008 4.10848076 -19.64871032 2.83389357 -8.05570984 0.22027588 C-2.18405695 -1.09202847 -2.18405695 -1.09202847 0 0 Z " fill="#C68244" transform="translate(338,208)"/>
<path d="M0 0 C0 2.31 0 4.62 0 7 C-0.66 7.33 -1.32 7.66 -2 8 C-2 8.66 -2 9.32 -2 10 C-2.66 10 -3.32 10 -4 10 C-4 10.66 -4 11.32 -4 12 C-4.99 12 -5.98 12 -7 12 C-7 12.99 -7 13.98 -7 15 C-7.66 15 -8.32 15 -9 15 C-9.07637695 15.75434326 -9.15275391 16.50868652 -9.23144531 17.28588867 C-10.67259018 22.3752176 -15.66630389 24.40278985 -20 27 C-24.01716416 29.2121095 -28.10353766 31.22988005 -32.25 33.1875 C-33.35029541 33.70924805 -34.45059082 34.23099609 -35.58422852 34.76855469 C-43.23221924 38.3265992 -50.64094665 41.54774312 -59 43 C-59.87011719 43.15339844 -60.74023438 43.30679688 -61.63671875 43.46484375 C-69.23705602 44.14493672 -75.00169437 40.32722341 -81 36 C-82.36695865 34.70116221 -83.71319109 33.37828821 -85 32 C-83.09940353 30.09940353 -79.603429 30.73098892 -77 30.625 C-59.67465835 29.69167467 -45.45918277 25.88423336 -30.27734375 17.234375 C-28 16 -28 16 -25 15 C-25 14.34 -25 13.68 -25 13 C-23.68 12.67 -22.36 12.34 -21 12 C-21 11.34 -21 10.68 -21 10 C-19.57421875 8.8515625 -19.57421875 8.8515625 -17.6875 7.625 C-15.39920967 6.07190335 -13.9908128 4.9877504 -12.3125 2.75 C-11 1 -11 1 -9.25 0.25 C-6.15774855 -0.09358349 -3.10779654 -0.05976532 0 0 Z " fill="#B47036" transform="translate(329,211)"/>
<path d="M0 0 C0.495 0.495 0.495 0.495 1 1 C2.47674029 1.13424912 3.95687555 1.23165467 5.4375 1.3125 C11.01615922 1.84227195 16.1991847 3.00182547 21 6 C22.625 9.25 22.625 9.25 23 12 C19.33862093 13.34820874 15.67125412 14.6789229 12 16 C11.24847656 16.27328125 10.49695313 16.5465625 9.72265625 16.828125 C-1.86118345 20.88354747 -12.85968785 22.48684175 -25.125 22.375 C-26.40503906 22.38660156 -27.68507813 22.39820313 -29.00390625 22.41015625 C-36.79757132 22.38622483 -43.61429106 21.52190269 -51 19 C-51 18.34 -51 17.68 -51 17 C-52.65 17 -54.3 17 -56 17 C-56 16.67 -56 16.34 -56 16 C-55.23558594 15.91363281 -54.47117187 15.82726562 -53.68359375 15.73828125 C-39.48415433 13.87577957 -27.44685433 9.17815928 -15.05249023 2.21484375 C-9.47242127 -0.78007993 -6.20549893 -1.52513953 0 0 Z " fill="#E9E9E7" transform="translate(317,238)"/>
<path d="M0 0 C-0.33 0.66 -0.66 1.32 -1 2 C-1.66 2 -2.32 2 -3 2 C-2.01 4.97 -2.01 4.97 -1 8 C-1.99 8.33 -2.98 8.66 -4 9 C-4.33 8.34 -4.66 7.68 -5 7 C-6.16313721 7.26264648 -7.32627441 7.52529297 -8.5246582 7.79589844 C-22.02561146 10.73233718 -35.42254188 12.21822116 -49.1875 13.25 C-50.8133049 13.37607635 -50.8133049 13.37607635 -52.47195435 13.50469971 C-68.02242473 14.70405167 -83.40239036 15.68788159 -99 15 C-99.77359863 14.96652466 -100.54719727 14.93304932 -101.34423828 14.89855957 C-109.71856466 14.53440685 -118.09196076 14.15293029 -126.46264648 13.71240234 C-127.34645996 13.66634857 -128.23027344 13.6202948 -129.14086914 13.57284546 C-130.79456047 13.48589059 -132.4481387 13.3967416 -134.1015625 13.30484009 C-139.73838904 13.00826323 -145.35592407 12.95335436 -151 13 C-151 12.01 -151 11.02 -151 10 C-147.7 9.67 -144.4 9.34 -141 9 C-142.8871875 8.8453125 -142.8871875 8.8453125 -144.8125 8.6875 C-148.36404494 8.39638976 -149.59393109 7.5738645 -152 5 C-150.24212158 5.21329956 -150.24212158 5.21329956 -148.44873047 5.4309082 C-131.14615376 7.34973192 -113.88873702 7.27018542 -96.50909424 7.19561768 C-93.32138219 7.18476374 -90.13371314 7.18515078 -86.94598579 7.18575573 C-83.81941571 7.18548086 -80.69287205 7.17995092 -77.56631088 7.17275429 C-76.10026116 7.16963058 -74.63420853 7.16761547 -73.16815567 7.16686058 C-58.44146659 7.15094301 -43.9478433 6.38746521 -29.375 4.125 C-27.63295288 3.8626355 -27.63295288 3.8626355 -25.85571289 3.5949707 C-18.59626476 2.47754567 -11.44341267 1.17272446 -4.30859375 -0.58203125 C-2 -1 -2 -1 0 0 Z " fill="#C8D6D1" transform="translate(341,201)"/>
<path d="M0 0 C3.4296875 1.53125 3.4296875 1.53125 6.875 3.5 C7.46796875 3.83386719 8.0609375 4.16773437 8.671875 4.51171875 C10.12104717 5.32979982 11.56146981 6.16334743 13 7 C12.76396978 12.54671027 11.23888919 16.67780452 8.00585938 21.22509766 C5.46364368 23.47459962 4.03824748 23.63852016 0.671875 23.73046875 C-1.30586112 23.59694512 -3.28079308 23.41442033 -5.25 23.1875 C-6.25546875 23.11595703 -7.2609375 23.04441406 -8.296875 22.97070312 C-15.63595467 22.36404533 -15.63595467 22.36404533 -18 20 C-17.67464719 15.56393959 -16.3526416 12.19805162 -14.25 8.3125 C-13.51523438 6.91451172 -13.51523438 6.91451172 -12.765625 5.48828125 C-9.3774386 0.71333714 -5.77525852 -0.75266527 0 0 Z " fill="#5B2E12" transform="translate(247,69)"/>
<path d="M0 0 C1.2043457 1.77832031 1.2043457 1.77832031 2.17578125 4.078125 C2.52833984 4.90957031 2.88089844 5.74101563 3.24414062 6.59765625 C3.59669922 7.47292969 3.94925781 8.34820312 4.3125 9.25 C4.8703418 10.53970703 4.8703418 10.53970703 5.43945312 11.85546875 C8.51185946 19.28188108 8.51185946 19.28188108 7 24 C4.25 26.875 4.25 26.875 1 29 C-3.99289411 28.92331733 -7.06243689 25.83117726 -10.625 22.6875 C-11.19734375 22.20087891 -11.7696875 21.71425781 -12.359375 21.21289062 C-18.4190899 15.9775788 -18.4190899 15.9775788 -20 13 C-20.14453125 10.5546875 -20.14453125 10.5546875 -19 8 C-16.75316777 6.03354432 -14.27646501 4.59748899 -11.6875 3.125 C-11.01009766 2.70992188 -10.33269531 2.29484375 -9.63476562 1.8671875 C-3.64686819 -1.6447758 -3.64686819 -1.6447758 0 0 Z " fill="#5A2E12" transform="translate(305,93)"/>
<path d="M0 0 C4.06899217 0.97920462 8.38527767 2.56105892 11.40234375 5.578125 C11.88415731 10.6522241 10.62062773 13.92412855 8.40234375 18.453125 C7.56703125 20.18175781 7.56703125 20.18175781 6.71484375 21.9453125 C6.28171875 22.81414062 5.84859375 23.68296875 5.40234375 24.578125 C-3.43765836 23.58993521 -10.25389779 19.7632895 -16.59765625 13.578125 C-17.25390625 11.42578125 -17.25390625 11.42578125 -17.59765625 9.578125 C-7.96190299 -0.75468275 -7.96190299 -0.75468275 0 0 Z " fill="#5B2D12" transform="translate(254.59765625,120.421875)"/>
<path d="M0 0 C4.34571244 1.08779469 6.51256761 3.33744781 9.54296875 6.52734375 C10.09662109 7.06617187 10.65027344 7.605 11.22070312 8.16015625 C12.7890625 9.76171875 12.7890625 9.76171875 15.10546875 12.77734375 C14.54306476 16.574914 13.1025549 19.39641564 10.5859375 22.2734375 C6.87179186 24.52532108 3.2603416 24.74094401 -1.01953125 25.02734375 C-1.8199585 25.09010498 -2.62038574 25.15286621 -3.44506836 25.2175293 C-5.71928673 25.29109085 -7.67341611 25.27644537 -9.89453125 24.77734375 C-12.44921875 22.26171875 -12.44921875 22.26171875 -13.89453125 19.77734375 C-12.29960871 15.34040499 -10.10580622 11.4613287 -7.64453125 7.46484375 C-7.27457031 6.81966797 -6.90460938 6.17449219 -6.5234375 5.50976562 C-4.63676124 2.46725869 -3.51400683 0.94370764 0 0 Z " fill="#5C2E12" transform="translate(195.89453125,100.22265625)"/>
<path d="M0 0 C0.98419922 0.71349609 0.98419922 0.71349609 1.98828125 1.44140625 C3.05304688 1.9415625 4.1178125 2.44171875 5.21484375 2.95703125 C7.98828125 5.44140625 7.98828125 5.44140625 8.46777344 7.54492188 C8.57988376 10.11831668 8.51141176 12.62001253 8.36328125 15.19140625 C8.33621094 16.07957031 8.30914062 16.96773437 8.28125 17.8828125 C8.21064749 20.0714902 8.11213652 22.25520193 7.98828125 24.44140625 C4.98514377 25.94297499 2.19760603 25.53421829 -1.13671875 25.50390625 C-2.41804687 25.49488281 -3.699375 25.48585937 -5.01953125 25.4765625 C-6.00695312 25.46496094 -6.994375 25.45335937 -8.01171875 25.44140625 C-9.21694095 23.22031097 -10.40059279 20.99161975 -11.57421875 18.75390625 C-12.08758789 17.81514648 -12.08758789 17.81514648 -12.61132812 16.85742188 C-14.04446061 14.09248951 -14.99956069 11.863291 -15.08984375 8.73046875 C-13.51651696 5.38999956 -11.37297956 4.31912858 -8.19921875 2.50390625 C-7.14089844 1.87613281 -6.08257812 1.24835938 -4.9921875 0.6015625 C-2.01171875 -0.55859375 -2.01171875 -0.55859375 0 0 Z " fill="#5C2F13" transform="translate(178.01171875,151.55859375)"/>
<path d="M0 0 C-0.33 0.66 -0.66 1.32 -1 2 C-1.66 2 -2.32 2 -3 2 C-2.01 4.97 -2.01 4.97 -1 8 C-1.99 8.33 -2.98 8.66 -4 9 C-4.495 8.01 -4.495 8.01 -5 7 C-6.20011719 7.26554688 -7.40023437 7.53109375 -8.63671875 7.8046875 C-32.61474941 12.95204601 -59.71423946 16.33211348 -84 11 C-84 10.67 -84 10.34 -84 10 C-71.625 9.505 -71.625 9.505 -59 9 C-59 8.34 -59 7.68 -59 7 C-58.15824219 6.97421875 -57.31648438 6.9484375 -56.44921875 6.921875 C-38.96037797 6.12280024 -21.31228074 3.59989926 -4.30859375 -0.58203125 C-2 -1 -2 -1 0 0 Z " fill="#C5E0E0" transform="translate(341,201)"/>
<path d="M0 0 C2.11392355 2.51657566 3.09604307 4.30733783 4.09375 7.5 C6.11767175 11.30344482 6.11767175 11.30344482 9.79296875 12.55859375 C11.25140419 12.88195726 12.71702876 13.17422786 14.1875 13.4375 C15.31188477 13.67629883 15.31188477 13.67629883 16.45898438 13.91992188 C18.30051141 14.30699444 20.14972063 14.65719795 22 15 C21.79375 13.88625 21.5875 12.7725 21.375 11.625 C21.25125 10.42875 21.1275 9.2325 21 8 C23 6 23 6 25.3125 5.625 C28.92642449 6.12926853 30.43875972 7.43875972 33 10 C34.51848927 12.96466952 35 14.65761787 35 18 C35.78246094 18.12117188 36.56492188 18.24234375 37.37109375 18.3671875 C38.38300781 18.53476563 39.39492187 18.70234375 40.4375 18.875 C41.44683594 19.03742188 42.45617187 19.19984375 43.49609375 19.3671875 C44.32238281 19.57601562 45.14867187 19.78484375 46 20 C46.495 20.99 46.495 20.99 47 22 C44.10450497 22.1954384 41.20891002 22.38161395 38.3125 22.5625 C37.49587891 22.61857422 36.67925781 22.67464844 35.83789062 22.73242188 C31.67526142 22.98521312 28.07274462 23.04202329 24 22 C21.77329321 21.61065965 19.54392761 21.23630299 17.3125 20.875 C15.60513672 20.59269531 15.60513672 20.59269531 13.86328125 20.3046875 C11.05865685 19.74594393 11.05865685 19.74594393 9 21 C9 20.01 9 19.02 9 18 C11.31 18 13.62 18 16 18 C16 17.34 16 16.68 16 16 C15.13375 15.896875 14.2675 15.79375 13.375 15.6875 C9.83316877 14.96601586 7.15687958 13.72876739 4 12 C4 11.34 4 10.68 4 10 C3.34 10 2.68 10 2 10 C0.68373308 6.38026598 0 3.90432869 0 0 Z " fill="#C9D7D2" transform="translate(154,189)"/>
<path d="M0 0 C5.45479185 0.56820748 9.91059256 1.94637945 15 4 C14.31195504 10.19240462 12.71951285 16.01955594 11 22 C7.16874998 23.02756439 4.89449638 22.9457076 1.1875 21.5625 C0.00220703 21.13130859 0.00220703 21.13130859 -1.20703125 20.69140625 C-1.79871094 20.46324219 -2.39039063 20.23507813 -3 20 C-2.88543872 17.60325733 -2.75871281 15.20818782 -2.625 12.8125 C-2.5940625 12.13896484 -2.563125 11.46542969 -2.53125 10.77148438 C-2.29896078 6.80321025 -1.71612524 3.59270121 0 0 Z " fill="#5A2D12" transform="translate(322,147)"/>
<path d="M0 0 C9.24 0 18.48 0 28 0 C29 4 29 4 27.625 6.3125 C24.10232596 9.91904723 20.45379185 13.58158351 16 16 C8.89633417 15.53068874 4.48309243 9.610343 0.00390625 4.6484375 C-0.49302734 3.83246094 -0.49302734 3.83246094 -1 3 C-0.67 2.01 -0.34 1.02 0 0 Z " fill="#5B2E13" transform="translate(214,215)"/>
<path d="M0 0 C2.86842211 0.26713549 4.39834218 0.62138558 6.66015625 2.41796875 C8.85291583 5.18487708 9.88882441 6.89750309 9.84375 10.4921875 C8.46257992 14.06763585 6.46416507 15.03114996 3.1875 16.9375 C2.15238281 17.56527344 1.11726563 18.19304687 0.05078125 18.83984375 C-3.125 20 -3.125 20 -6.3671875 19.30859375 C-9.36631958 17.88549283 -11.15554316 16.6784613 -13.125 14 C-12.30233686 7.09550581 -7.05591152 0.46406593 0 0 Z " fill="#5A2D11" transform="translate(284.125,159)"/>
<path d="M0 0 C12.87 0.495 12.87 0.495 26 1 C25.01 1.66 24.02 2.32 23 3 C24.00445663 5.24071094 24.87754985 6.87754985 26.625 8.625 C27.07875 9.07875 27.5325 9.5325 28 10 C28 10.66 28 11.32 28 12 C28.9590625 12.37125 28.9590625 12.37125 29.9375 12.75 C32 14 32 14 32.75 16.125 C32.8325 16.74375 32.915 17.3625 33 18 C34.32 18.33 35.64 18.66 37 19 C37 19.99 37 20.98 37 22 C37.99 22.33 38.98 22.66 40 23 C38.33203125 23.796875 38.33203125 23.796875 36 24 C33.44921875 22.015625 33.44921875 22.015625 30.6875 19.25 C24.72138586 13.5446082 20.82144447 11.11020809 12.4375 10.625 C8.75441579 10.37169297 6.32118022 10.03595188 3.375 7.75 C1 5 1 5 0 0 Z " fill="#C38751" transform="translate(191,213)"/>
<path d="M0 0 C0.76570313 0.71542969 1.53140625 1.43085938 2.3203125 2.16796875 C3.10148437 2.87566406 3.88265625 3.58335937 4.6875 4.3125 C6.4453125 6.35546875 6.4453125 6.35546875 6.4453125 9.35546875 C4.72375154 10.36850637 2.99269444 11.36541723 1.2578125 12.35546875 C-0.18658203 13.19078125 -0.18658203 13.19078125 -1.66015625 14.04296875 C-4.60357493 15.37763633 -6.37348807 15.63462336 -9.5546875 15.35546875 C-10.5931086 13.63680658 -11.60983385 11.90502277 -12.6171875 10.16796875 C-13.18566406 9.20503906 -13.75414062 8.24210938 -14.33984375 7.25 C-15.69283924 4.02630334 -15.60238268 2.63026454 -14.5546875 -0.64453125 C-4.09592866 -2.63667579 -4.09592866 -2.63667579 0 0 Z " fill="#5C2F12" transform="translate(228.5546875,174.64453125)"/>
<path d="M0 0 C1.77528076 0.20568604 1.77528076 0.20568604 3.58642578 0.41552734 C20.56298094 2.23756487 37.5165727 2.43092457 54.5692749 2.60089111 C58.46553315 2.64163077 62.36166129 2.69239481 66.2578125 2.7421875 C73.83845081 2.8376544 81.41915489 2.9224503 89 3 C89 3.33 89 3.66 89 4 C87.84155075 4.0154612 87.84155075 4.0154612 86.65969849 4.03123474 C79.3904686 4.12910994 72.12132579 4.23161 64.85223579 4.33933926 C61.11489964 4.39456319 57.37755565 4.44798232 53.64013672 4.49731445 C50.03503385 4.54496587 46.43002715 4.59730892 42.82503891 4.65294075 C41.44791933 4.67336079 40.07077338 4.69207447 38.69360733 4.70907402 C36.768496 4.73312547 34.84347005 4.76374251 32.91845703 4.79467773 C31.82147491 4.81022202 30.7244928 4.8257663 29.5942688 4.84178162 C27.01546248 4.82896195 27.01546248 4.82896195 25 6 C29.62 6.66 34.24 7.32 39 8 C39 8.33 39 8.66 39 9 C30.59181785 9.07748485 22.21341337 8.83513078 13.8125 8.5 C11.9552832 8.42845703 11.9552832 8.42845703 10.06054688 8.35546875 C7.04028637 8.23885638 4.02011425 8.12033093 1 8 C1 7.01 1 6.02 1 5 C4.3 4.67 7.6 4.34 11 4 C9.1128125 3.8453125 9.1128125 3.8453125 7.1875 3.6875 C3.63595506 3.39638976 2.40606891 2.5738645 0 0 Z " fill="#C4C9BD" transform="translate(189,206)"/>
<path d="M0 0 C2.27264504 0.25518471 4.54312705 0.52969061 6.8125 0.8125 C8.07707031 0.96332031 9.34164062 1.11414063 10.64453125 1.26953125 C13.94960794 1.9890299 15.11983789 2.2754142 17 5 C18.54802844 9.64408533 18.72103912 13.45959825 16.625 17.9375 C16.08875 18.618125 15.5525 19.29875 15 20 C14.34 20 13.68 20 13 20 C7.73316613 13.89942023 3.26246479 7.37600735 0 0 Z " fill="#C88041" transform="translate(164,208)"/>
<path d="M0 0 C0.77923828 0.00451172 1.55847656 0.00902344 2.36132812 0.01367188 C4.26175268 0.02533092 6.16213706 0.04326123 8.0625 0.0625 C8.0625 2.0425 8.0625 4.0225 8.0625 6.0625 C1.42793779 9.61121932 -3.5544028 10.18763724 -10.9375 10.0625 C-12.5875 7.0925 -14.2375 4.1225 -15.9375 1.0625 C-10.57260405 0.15766363 -5.43432543 -0.06053662 0 0 Z " fill="#5F361B" transform="translate(290.9375,213.9375)"/>
<path d="M0 0 C4.25788605 1.17458925 5.95331984 2.5187198 8.625 6 C8.625 7.32 8.625 8.64 8.625 10 C6.21958071 11.20270964 4.52133409 11.20316663 1.8359375 11.31640625 C0.42441406 11.37924805 0.42441406 11.37924805 -1.015625 11.44335938 C-2.49289062 11.50233398 -2.49289062 11.50233398 -4 11.5625 C-4.99257813 11.60568359 -5.98515625 11.64886719 -7.0078125 11.69335938 C-9.46339838 11.79961069 -11.91908703 11.90164964 -14.375 12 C-14.375 11.34 -14.375 10.68 -14.375 10 C-12.73046875 8.37890625 -12.73046875 8.37890625 -10.5625 6.5625 C-7.56766664 4.05059516 -7.56766664 4.05059516 -4.82421875 1.27734375 C-3.375 0 -3.375 0 0 0 Z " fill="#562C15" transform="translate(291.375,197)"/>
<path d="M0 0 C9.75 0.75 9.75 0.75 12 3 C11.34 3.66 10.68 4.32 10 5 C9.95834237 6.99956611 9.95834237 9.00043389 10 11 C9.67 11.66 9.34 12.32 9 13 C8.34 13 7.68 13 7 13 C7 13.66 7 14.32 7 15 C7.61488281 15.02578125 8.22976562 15.0515625 8.86328125 15.078125 C15.54716981 15.54716981 15.54716981 15.54716981 18.0625 18.0625 C18.371875 18.701875 18.68125 19.34125 19 20 C16.98177083 19.67447917 14.96354167 19.34895833 12.9453125 19.0234375 C12.30335938 19.01570313 11.66140625 19.00796875 11 19 C10.34 19.66 9.68 20.32 9 21 C6.875 20.625 6.875 20.625 5 20 C5.66 20 6.32 20 7 20 C6.67 18.02 6.34 16.04 6 14 C5.01 14 4.02 14 3 14 C2.67 13.34 2.34 12.68 2 12 C0.68 11.34 -0.64 10.68 -2 10 C-1.34 6.7 -0.68 3.4 0 0 Z " fill="#C38A55" transform="translate(166,177)"/>
<path d="M0 0 C3.90016146 0.22942126 6.33663194 0.47270744 9.4375 2.9375 C10.283125 3.948125 11.12875 4.95875 12 6 C12.68835938 6.81984375 13.37671875 7.6396875 14.0859375 8.484375 C20 15.66425439 20 15.66425439 20 18 C17.1875 17.375 17.1875 17.375 14 16 C12.125 12.875 12.125 12.875 11 10 C10.87625 10.804375 10.7525 11.60875 10.625 12.4375 C10.41875 13.283125 10.2125 14.12875 10 15 C9.01 15.495 9.01 15.495 8 16 C7.773125 15.4225 7.54625 14.845 7.3125 14.25 C5.67083893 11.43572387 3.56440947 9.97262267 1 8 C-0.35439668 5.29120665 -0.06501451 2.99066732 0 0 Z " fill="#F6FBF9" transform="translate(157,210)"/>
<path d="M0 0 C3.15677712 1.95879156 5.69461174 4.07831983 8 7 C8.57556272 10.28070752 8.52064379 11.82558931 8 15 C7.87753906 16.16015625 7.75507813 17.3203125 7.62890625 18.515625 C6.51325395 28.11220938 6.51325395 28.11220938 4.84375 31 C1.83090666 32.63408452 -0.47174944 31.54715609 -3.6875 30.6875 C-4.86699219 30.38199219 -6.04648438 30.07648438 -7.26171875 29.76171875 C-8.16535156 29.51035156 -9.06898438 29.25898438 -10 29 C-10 28.67 -10 28.34 -10 28 C-5.05 27.67 -0.1 27.34 5 27 C5 20.73 5 14.46 5 8 C2.525 7.01 2.525 7.01 0 6 C-0.474375 5.443125 -0.94875 4.88625 -1.4375 4.3125 C-1.953125 3.879375 -2.46875 3.44625 -3 3 C-6.14921909 3.23283149 -6.14921909 3.23283149 -9 4 C-8.625 2.0625 -8.625 2.0625 -8 0 C-4.89303638 -1.55348181 -3.33143054 -0.98709053 0 0 Z " fill="#AF6F3A" transform="translate(181,149)"/>
<path d="M0 0 C3.6818681 0.51374904 5.13671881 1.68633874 7.6875 4.375 C9 8.125 9 8.125 9.6875 11.375 C8.27047487 11.23269192 6.8538904 11.08599254 5.4375 10.9375 C4.25414062 10.81568359 4.25414062 10.81568359 3.046875 10.69140625 C0.86385361 10.39865007 -1.1898182 9.95435581 -3.3125 9.375 C-3.9375 6 -3.9375 6 -4.3125 2.375 C-2.3125 0.375 -2.3125 0.375 0 0 Z " fill="#FAFBF6" transform="translate(179.3125,194.625)"/>
<path d="M0 0 C0.33 0 0.66 0 1 0 C1.08187055 1.56160485 1.13958275 3.12448483 1.1875 4.6875 C1.23970703 5.99267578 1.23970703 5.99267578 1.29296875 7.32421875 C0.94293829 10.52116364 -0.1968723 12.37339666 -2 15 C-9.45491562 14.63419196 -16.04931961 13.79080349 -23 11 C-23 10.67 -23 10.34 -23 10 C-17.39 10.33 -11.78 10.66 -6 11 C-5.34 9.68 -4.68 8.36 -4 7 C-2.69208286 4.65147725 -1.34341498 2.32858596 0 0 Z " fill="#A86A36" transform="translate(259,81)"/>
<path d="M0 0 C2.10478604 0.11409682 4.20884577 0.24165361 6.3125 0.375 C7.48425781 0.44460937 8.65601563 0.51421875 9.86328125 0.5859375 C13 1 13 1 16 3 C18.0179789 3.37847045 18.0179789 3.37847045 20.125 3.5 C21.40375 3.665 22.6825 3.83 24 4 C24.33 4.66 24.66 5.32 25 6 C22.06294869 6.22155127 19.12619637 6.42774197 16.1875 6.625 C15.35412109 6.68945312 14.52074219 6.75390625 13.66210938 6.8203125 C12.45844727 6.89765625 12.45844727 6.89765625 11.23046875 6.9765625 C10.12288208 7.05511475 10.12288208 7.05511475 8.99291992 7.13525391 C7 7 7 7 4 5 C2.0103005 4.60986284 0.00980131 4.26797351 -2 4 C-1.34 2.68 -0.68 1.36 0 0 Z " fill="#C0DEDF" transform="translate(176,205)"/>
<path d="M0 0 C0 0.66 0 1.32 0 2 C-8.64013276 6.32006638 -25.43468653 2.66294252 -35 2 C-35 1.67 -35 1.34 -35 1 C-23.69273829 -2.2306462 -11.56874341 -1.55733084 0 0 Z " fill="#C1DCE0" transform="translate(242,211)"/>
<path d="M0 0 C-4.78215055 7.76396207 -10.3270879 15.88472527 -18 21 C-18 20.01 -18 19.02 -18 18 C-17.34 18 -16.68 18 -16 18 C-16 17.01 -16 16.02 -16 15 C-15.01 15 -14.02 15 -13 15 C-13 14.34 -13 13.68 -13 13 C-12.34 13 -11.68 13 -11 13 C-11.33 12.01 -11.66 11.02 -12 10 C-11.01 10 -10.02 10 -9 10 C-9.18415432 7.05908413 -9.18415432 7.05908413 -10 4 C-11.98562946 2.77763798 -11.98562946 2.77763798 -14 2 C-12.04396149 1.47061343 -10.08507711 0.95173199 -8.125 0.4375 C-7.03445313 0.14746094 -5.94390625 -0.14257812 -4.8203125 -0.44140625 C-2 -1 -2 -1 0 0 Z " fill="#AD713A" transform="translate(338,208)"/>
<path d="M0 0 C3.465 1.98 3.465 1.98 7 4 C5.68 8.29 4.36 12.58 3 17 C-3.73811499 18.41030314 -10.19022959 17.66561666 -17 17 C-17 16.67 -17 16.34 -17 16 C-15.69675781 16.01353516 -15.69675781 16.01353516 -14.3671875 16.02734375 C-7.73289945 16.00200725 -7.73289945 16.00200725 -1.765625 13.515625 C-0.13192755 11.69521927 1.08713933 10.27274073 2 8 C1.63820644 4.94809624 0.75922337 3.63883506 -1 1 C-0.67 0.67 -0.34 0.34 0 0 Z " fill="#A66835" transform="translate(208,108)"/>
<path d="M0 0 C0 0.66 0 1.32 0 2 C-0.66 2 -1.32 2 -2 2 C-2.12375 2.61875 -2.2475 3.2375 -2.375 3.875 C-3.20712477 6.70422422 -4.93690484 7.93690484 -7 10 C-7.5775 9.79375 -8.155 9.5875 -8.75 9.375 C-11.2571146 8.7161101 -11.2571146 8.7161101 -14.125 10.75 C-17.13571776 12.8640844 -17.13571776 12.8640844 -19 16 C-20.97746603 16.73080266 -22.98072489 17.39421747 -25 18 C-26.34275329 18.64748424 -27.67830634 19.31054508 -29 20 C-23.4387331 12.58497746 -9.90220439 0 0 0 Z " fill="#D0A478" transform="translate(200,69)"/>
<path d="M0 0 C3.96 0 7.92 0 12 0 C12 0.66 12 1.32 12 2 C12.99 1.67 13.98 1.34 15 1 C15 1.66 15 2.32 15 3 C14.01 3 13.02 3 12 3 C12.7763932 6.0745356 12.7763932 6.0745356 15 8 C11.78548731 9.60725635 8.56387464 9.05748185 5 9 C3.35 6.03 1.7 3.06 0 0 Z " fill="#502D17" transform="translate(275,215)"/>
<path d="M0 0 C0 1.65 0 3.3 0 5 C-22.58103085 5.30885908 -22.58103085 5.30885908 -33 3 C-33 2.67 -33 2.34 -33 2 C-32.31373535 1.97494385 -31.6274707 1.9498877 -30.92041016 1.92407227 C-27.82174183 1.80828573 -24.72339077 1.68548115 -21.625 1.5625 C-20.54476563 1.52318359 -19.46453125 1.48386719 -18.3515625 1.44335938 C-16.8046875 1.38051758 -16.8046875 1.38051758 -15.2265625 1.31640625 C-14.27346191 1.27974854 -13.32036133 1.24309082 -12.33837891 1.20532227 C-7.99280387 0.82375737 -4.61333638 -0.07440865 0 0 Z " fill="#C2DEE0" transform="translate(290,209)"/>
<path d="M0 0 C-1.051875 0.391875 -2.10375 0.78375 -3.1875 1.1875 C-6.91658932 2.76402557 -9.29663487 4.96895425 -12 8 C-12.99 7.67 -13.98 7.34 -15 7 C-15 6.34 -15 5.68 -15 5 C-17.97 4.67 -20.94 4.34 -24 4 C-24.33 4.66 -24.66 5.32 -25 6 C-25 5.01 -25 4.02 -25 3 C-26.32 2.67 -27.64 2.34 -29 2 C-28.38479492 1.94465088 -27.76958984 1.88930176 -27.13574219 1.83227539 C-24.34019004 1.57892518 -21.54510238 1.32076306 -18.75 1.0625 C-17.78191406 0.97548828 -16.81382812 0.88847656 -15.81640625 0.79882812 C-14.88183594 0.71181641 -13.94726562 0.62480469 -12.984375 0.53515625 C-11.69611816 0.41732788 -11.69611816 0.41732788 -10.38183594 0.29711914 C-8.01651509 0.05379967 -8.01651509 0.05379967 -5.82910156 -0.56079102 C-3.59213722 -1.09793715 -2.1640786 -0.69559669 0 0 Z " fill="#BB8756" transform="translate(324,211)"/>
<path d="M0 0 C2.875 1.0625 2.875 1.0625 6 3 C7.375 6.6875 7.375 6.6875 8 10 C8.66 10 9.32 10 10 10 C11.34886782 12.7770808 12.02945279 14.5778434 11.8125 17.6875 C11 20 11 20 8 22 C7.67386719 21.05898437 7.34773438 20.11796875 7.01171875 19.1484375 C6.57472656 17.90320313 6.13773437 16.65796875 5.6875 15.375 C5.25824219 14.14523438 4.82898438 12.91546875 4.38671875 11.6484375 C3.07006663 8.0007786 3.07006663 8.0007786 1.33203125 4.6640625 C0 2 0 2 0 0 Z " fill="#AE6F36" transform="translate(305,94)"/>
<path d="M0 0 C1.04692525 4.18770101 0.85469996 5.32171213 -0.4375 9.25 C-0.86869141 10.58804688 -0.86869141 10.58804688 -1.30859375 11.953125 C-1.53675781 12.62859375 -1.76492188 13.3040625 -2 14 C-6.3164922 14.76173392 -9.74433453 15.16063604 -14 14 C-14 13.34 -14 12.68 -14 12 C-15.3303125 11.9071875 -15.3303125 11.9071875 -16.6875 11.8125 C-20.74081992 10.81828945 -22.29831749 9.09898876 -25 6 C-24.67 5.34 -24.34 4.68 -24 4 C-23.00419922 4.61488281 -23.00419922 4.61488281 -21.98828125 5.2421875 C-21.10527344 5.78101563 -20.22226563 6.31984375 -19.3125 6.875 C-18.44238281 7.40867188 -17.57226562 7.94234375 -16.67578125 8.4921875 C-12.5290698 10.82887453 -9.81269897 12 -5 12 C-3.35 8.04 -1.7 4.08 0 0 Z " fill="#AA6D37" transform="translate(265,132)"/>
<path d="M0 0 C2.27264504 0.25518471 4.54312705 0.52969061 6.8125 0.8125 C8.07707031 0.96332031 9.34164062 1.11414063 10.64453125 1.26953125 C13.94960794 1.9890299 15.11983789 2.2754142 17 5 C18.54802844 9.64408533 18.72103912 13.45959825 16.625 17.9375 C16.08875 18.618125 15.5525 19.29875 15 20 C14.34 20 13.68 20 13 20 C12.34 18.68 11.68 17.36 11 16 C12.65 16 14.3 16 16 16 C15.52060632 11.28596212 15.03165952 7.33420699 13 3 C10.36 3.33 7.72 3.66 5 4 C5.33 5.98 5.66 7.96 6 10 C3.23647057 6.77588233 1.47930193 3.96479572 0 0 Z " fill="#BB9169" transform="translate(164,208)"/>
<path d="M0 0 C2.875 0.3125 2.875 0.3125 3.875 1.3125 C3.91563832 2.97867115 3.917721 4.64638095 3.875 6.3125 C-3.41071429 9.74107143 -3.41071429 9.74107143 -8.125 9.3125 C-4.94056196 0.4940562 -4.94056196 0.4940562 0 0 Z " fill="#FBF5EA" transform="translate(243.125,224.6875)"/>
<path d="M0 0 C0.33 0 0.66 0 1 0 C1.09765625 6.15234375 1.09765625 6.15234375 1 8 C0.67 8.33 0.34 8.66 0 9 C-0.46068546 15.79243211 0.11676507 21.47145223 2 28 C1.88780798 30.74626552 1.47671681 33.28271419 1 36 C1.66 36 2.32 36 3 36 C2.67 37.32 2.34 38.64 2 40 C-1.17145005 32.69187597 -2.18229087 27.29810138 -2.1875 19.3125 C-2.19974609 18.34376953 -2.21199219 17.37503906 -2.22460938 16.37695312 C-2.23641254 10.55799252 -1.67383029 5.57722899 0 0 Z " fill="#D0A982" transform="translate(149,142)"/>
<path d="M0 0 C-0.33 0.66 -0.66 1.32 -1 2 C-1.66 2 -2.32 2 -3 2 C-2.34 3.98 -1.68 5.96 -1 8 C-1.99 8.33 -2.98 8.66 -4 9 C-4.33 8.34 -4.66 7.68 -5 7 C-5.58491211 7.12640869 -6.16982422 7.25281738 -6.77246094 7.38305664 C-9.42978211 7.95199322 -12.08976231 8.50736776 -14.75 9.0625 C-15.67039062 9.26166016 -16.59078125 9.46082031 -17.5390625 9.66601562 C-18.42851562 9.84970703 -19.31796875 10.03339844 -20.234375 10.22265625 C-21.45979004 10.48187866 -21.45979004 10.48187866 -22.70996094 10.74633789 C-25.10200494 11.01129884 -26.72525071 10.73312703 -29 10 C-24.82262526 8.40861915 -21.46839215 7.78721942 -17 8 C-17 7.34 -17 6.68 -17 6 C-15.95199219 5.90912109 -15.95199219 5.90912109 -14.8828125 5.81640625 C-13.97273438 5.73261719 -13.06265625 5.64882812 -12.125 5.5625 C-11.22007812 5.48128906 -10.31515625 5.40007812 -9.3828125 5.31640625 C-6.98889139 5.13010715 -6.98889139 5.13010715 -5 4 C-6.98 3.34 -8.96 2.68 -11 2 C-11 1.67 -11 1.34 -11 1 C-9.5437328 0.63743142 -8.08488815 0.28520207 -6.625 -0.0625 C-5.81289063 -0.25972656 -5.00078125 -0.45695313 -4.1640625 -0.66015625 C-2 -1 -2 -1 0 0 Z " fill="#C7D2C8" transform="translate(341,201)"/>
<path d="M0 0 C0.70511719 0.72574219 1.41023438 1.45148438 2.13671875 2.19921875 C4.8745056 4.9370056 7.79892593 7.37985587 10.8125 9.8125 C11.78832031 10.60269531 12.76414062 11.39289063 13.76953125 12.20703125 C14.50558594 12.79871094 15.24164063 13.39039062 16 14 C13 15 13 15 10.625 14.109375 C9.75875 13.66078125 8.8925 13.2121875 8 12.75 C7.13375 12.31171875 6.2675 11.8734375 5.375 11.421875 C3.15729572 10.09417046 1.57219614 9.04334287 0 7 C-0.1875 3.3125 -0.1875 3.3125 0 0 Z " fill="#B3723B" transform="translate(286,107)"/>
<path d="M0 0 C6.06060011 5.87120636 12.03391009 12.17162637 17 19 C17 19.66 17 20.32 17 21 C16.01 21.33 15.02 21.66 14 22 C13.87625 21.1028125 13.87625 21.1028125 13.75 20.1875 C12.79394921 17.39901853 11.32024306 16.72147066 9 15 C9 14.01 9 13.02 9 12 C7.88625 11.690625 7.88625 11.690625 6.75 11.375 C3.13695482 9.56847741 1.90065681 7.51973484 0 4 C0 2.68 0 1.36 0 0 Z " fill="#C29A73" transform="translate(319,84)"/>
<path d="M0 0 C3.50886032 1.40354413 4.4267148 2.64365823 6 6 C6.99 6.66 7.98 7.32 9 8 C9.33 8.99 9.66 9.98 10 11 C10.66 11 11.32 11 12 11 C12.33 12.65 12.66 14.3 13 16 C12.34 16 11.68 16 11 16 C10.67 16.99 10.34 17.98 10 19 C8.32626249 16.21251481 6.66223733 13.41935573 5 10.625 C4.28457031 9.43390625 4.28457031 9.43390625 3.5546875 8.21875 C3.10351562 7.45820312 2.65234375 6.69765625 2.1875 5.9140625 C1.76855469 5.2123291 1.34960938 4.5105957 0.91796875 3.78759766 C0 2 0 2 0 0 Z " fill="#B87639" transform="translate(324,94)"/>
<path d="M0 0 C0.66 0.33 1.32 0.66 2 1 C2 1.66 2 2.32 2 3 C2.66 3 3.32 3 4 3 C5.76171875 5.3359375 5.76171875 5.3359375 7.6875 8.375 C8.65236328 9.87160156 8.65236328 9.87160156 9.63671875 11.3984375 C10.31154297 12.68621094 10.31154297 12.68621094 11 14 C10.67 14.66 10.34 15.32 10 16 C5.125 11.25 5.125 11.25 4 9 C2.35 9.33 0.7 9.66 -1 10 C-1.09978121 6.50765756 -0.77842938 3.40562852 0 0 Z " fill="#C08C5F" transform="translate(336,105)"/>
<path d="M0 0 C-0.33 0.66 -0.66 1.32 -1 2 C-3.06640625 2.4140625 -3.06640625 2.4140625 -5.5625 2.625 C-6.38878906 2.69976562 -7.21507812 2.77453125 -8.06640625 2.8515625 C-9.02353516 2.92503906 -9.02353516 2.92503906 -10 3 C-8.68 3.99 -7.36 4.98 -6 6 C-12.0546875 6.9765625 -12.0546875 6.9765625 -14 7 C-14.66 6.34 -15.32 5.68 -16 5 C-15.67 4.34 -15.34 3.68 -15 3 C-17.31 2.67 -19.62 2.34 -22 2 C-22 1.67 -22 1.34 -22 1 C-19.45847098 0.83096719 -16.91681012 0.66470573 -14.375 0.5 C-13.30572266 0.42845703 -13.30572266 0.42845703 -12.21484375 0.35546875 C-8.13492439 0.09345558 -4.09108781 -0.05162256 0 0 Z " fill="#BACCC9" transform="translate(304,207)"/>
<path d="M0 0 C9.24 0 18.48 0 28 0 C28 0.33 28 0.66 28 1 C26.98679688 1.06058594 25.97359375 1.12117187 24.9296875 1.18359375 C23.57811486 1.26806704 22.22655291 1.35271157 20.875 1.4375 C19.87726563 1.49647461 19.87726563 1.49647461 18.859375 1.55664062 C14.85468998 1.81184114 10.91589478 2.10136761 7 3 C6.67 3.66 6.34 4.32 6 5 C4.125 4.75 4.125 4.75 2 4 C1.34 2.68 0.68 1.36 0 0 Z " fill="#553E2B" transform="translate(214,215)"/>
<path d="M0 0 C0.99 0 1.98 0 3 0 C3 1.32 3 2.64 3 4 C6.3 4.33 9.6 4.66 13 5 C13 4.01 13 3.02 13 2 C14.32 2 15.64 2 17 2 C17.33 3.98 17.66 5.96 18 8 C12.28767891 7.48069808 6.07019338 6.8734794 1 4 C0.24609375 1.89453125 0.24609375 1.89453125 0 0 Z " fill="#BA8C5E" transform="translate(158,196)"/>
<path d="M0 0 C2.45898655 -0.08076963 4.91533742 -0.14037143 7.375 -0.1875 C8.07367188 -0.21263672 8.77234375 -0.23777344 9.4921875 -0.26367188 C11.5234375 -0.29296875 11.5234375 -0.29296875 15 0 C15.66 0.99 16.32 1.98 17 3 C11.06 3 5.12 3 -1 3 C-0.67 2.01 -0.34 1.02 0 0 Z " fill="#623C1E" transform="translate(221,206)"/>
<path d="M0 0 C2.4375 0.375 2.4375 0.375 5 1 C6.4783226 3.95664519 6.06032783 6.74229737 6 10 C3.15425032 8.72431911 0.81910019 7.58503711 -1 5 C-0.6875 2.3125 -0.6875 2.3125 0 0 Z " fill="#FCF0DE" transform="translate(167,179)"/>
<path d="M0 0 C0.33 0.66 0.66 1.32 1 2 C0.67 2.99 0.34 3.98 0 5 C-2.0625 5.6875 -2.0625 5.6875 -4 6 C-4.33 8.31 -4.66 10.62 -5 13 C-6.32 12.67 -7.64 12.34 -9 12 C-9 10.68 -9 9.36 -9 8 C-10.32 7.67 -11.64 7.34 -13 7 C-12.67 6.34 -12.34 5.68 -12 5 C-11.319375 5.28875 -10.63875 5.5775 -9.9375 5.875 C-6.36991658 6.02681206 -5.8092257 5.3378595 -3.1875 3.0625 C-2.11178881 2.05559763 -1.04488181 1.03885944 0 0 Z " fill="#C57F43" transform="translate(237,224)"/>
<path d="M0 0 C0.66 0 1.32 0 2 0 C1.67 3.96 1.34 7.92 1 12 C3.31 12.33 5.62 12.66 8 13 C8 13.33 8 13.66 8 14 C4.7 13.67 1.4 13.34 -2 13 C-3.18414294 9.44757118 -2.69535532 8.30169438 -1.5625 4.8125 C-1.27503906 3.91144531 -0.98757813 3.01039063 -0.69140625 2.08203125 C-0.46324219 1.39496094 -0.23507812 0.70789063 0 0 Z " fill="#AF6F39" transform="translate(318,155)"/>
<path d="M0 0 C2.24562346 4.49124692 2.24987923 7.28891674 1 12 C-0.16427984 14.50296598 -1.49589388 16.67106149 -3 19 C-3.66 18.67 -4.32 18.34 -5 18 C-3.35 12.06 -1.7 6.12 0 0 Z " fill="#A66633" transform="translate(337,151)"/>
<path d="M0 0 C0 3 0 3 -1.3125 4.625 C-3 6 -3 6 -6 7 C-6.99 7.66 -7.98 8.32 -9 9 C-8.67 11.31 -8.34 13.62 -8 16 C-10.0625 14.3125 -10.0625 14.3125 -12 12 C-11.96875 9.59375 -11.96875 9.59375 -11 7 C-8.49609375 4.98046875 -8.49609375 4.98046875 -5.4375 3.1875 C-4.42558594 2.58292969 -3.41367187 1.97835937 -2.37109375 1.35546875 C-1.58863281 0.90816406 -0.80617188 0.46085937 0 0 Z " fill="#6A340E" transform="translate(297,94)"/>
<path d="M0 0 C0.33 1.32 0.66 2.64 1 4 C-4.93209606 6.96604803 -10.82864894 5.66293891 -17 4 C-17.66 3.34 -18.32 2.68 -19 2 C-13.39 2.33 -7.78 2.66 -2 3 C-2 2.34 -2 1.68 -2 1 C-1.34 0.67 -0.68 0.34 0 0 Z " fill="#B16E35" transform="translate(257,90)"/>
<path d="M0 0 C0.66 0.33 1.32 0.66 2 1 C1.34 2.32 0.68 3.64 0 5 C4.455 4.505 4.455 4.505 9 4 C8.67 4.66 8.34 5.32 8 6 C5.71484375 6.4140625 5.71484375 6.4140625 2.9375 6.625 C2.01839844 6.69976562 1.09929687 6.77453125 0.15234375 6.8515625 C-0.55792969 6.90054688 -1.26820313 6.94953125 -2 7 C-1.34 8.32 -0.68 9.64 0 11 C-1.98 10.34 -3.96 9.68 -6 9 C-5.01 8.67 -4.02 8.34 -3 8 C-2.87625 6.865625 -2.7525 5.73125 -2.625 4.5625 C-2.41875 3.386875 -2.2125 2.21125 -2 1 C-1.34 0.67 -0.68 0.34 0 0 Z " fill="#C28D5E" transform="translate(235,229)"/>
<path d="M0 0 C2.17128985 2.58486887 3.05919576 4.2249439 3.9375 7.5625 C4.55822435 9.46230544 4.55822435 9.46230544 6 11 C9.91335373 12.52898793 13.86128872 13.3262563 18 14 C18 14.33 18 14.66 18 15 C12.32723489 15.29341888 9.00932754 15.00559652 4 12 C4 11.34 4 10.68 4 10 C3.34 10 2.68 10 2 10 C0.68373308 6.38026598 0 3.90432869 0 0 Z " fill="#CED1C3" transform="translate(154,189)"/>
<path d="M0 0 C1.32 0 2.64 0 4 0 C4 0.99 4 1.98 4 3 C5.32 3 6.64 3 8 3 C8 3.66 8 4.32 8 5 C9.32 5.33 10.64 5.66 12 6 C12 6.99 12 7.98 12 9 C12.99 9.33 13.98 9.66 15 10 C13.359375 10.8046875 13.359375 10.8046875 11 11 C8.8717606 9.43651686 7.11855833 7.95432351 5.25 6.125 C4.74339844 5.65191406 4.23679688 5.17882812 3.71484375 4.69140625 C2.44675562 3.49167866 1.21957442 2.24901242 0 1 C0 0.67 0 0.34 0 0 Z " fill="#C68E59" transform="translate(216,226)"/>
<path d="M0 0 C0.53625 0.680625 1.0725 1.36125 1.625 2.0625 C3.94790138 4.93556223 6.36356826 7.69794378 8.828125 10.44921875 C10 12 10 12 10 14 C6.84037704 13.4255231 4.65266989 12.89791554 2.7109375 10.2265625 C0.77270378 6.47559221 0 4.32970417 0 0 Z " fill="#D0D9D3" transform="translate(167,214)"/>
<path d="M0 0 C0.91535656 1.15667784 1.78653288 2.34892918 2.625 3.5625 C3.07101563 4.20316406 3.51703125 4.84382812 3.9765625 5.50390625 C4.31429687 5.99761719 4.65203125 6.49132812 5 7 C2 7 2 7 -0.5625 4.5 C-4.12867165 1.29495966 -7.41148176 1.58613844 -12.0234375 1.82421875 C-13.00183594 1.91123047 -13.00183594 1.91123047 -14 2 C-11.01745874 0.01163916 -9.86191192 -0.34336635 -6.4375 -0.6875 C-5.25994141 -0.81705078 -5.25994141 -0.81705078 -4.05859375 -0.94921875 C-2 -1 -2 -1 0 0 Z " fill="#B1733F" transform="translate(230,172)"/>
<path d="M0 0 C0.66 2.31 1.32 4.62 2 7 C1.29875 6.319375 0.5975 5.63875 -0.125 4.9375 C-2.8829449 2.64710348 -2.8829449 2.64710348 -6.3125 3.25 C-7.6428125 3.62125 -7.6428125 3.62125 -9 4 C-8.625 2.0625 -8.625 2.0625 -8 0 C-5.13822943 -1.43088528 -3.06624227 -0.59991697 0 0 Z " fill="#A66A35" transform="translate(181,149)"/>
<path d="M0 0 C1.45792884 -0.05399736 2.91642712 -0.09279177 4.375 -0.125 C5.18710938 -0.14820312 5.99921875 -0.17140625 6.8359375 -0.1953125 C9 0 9 0 11 2 C11.68132451 3.66072849 12.34742127 5.327767 13 7 C13.99 8.485 13.99 8.485 15 10 C12.15455313 8.84074387 10.75592369 7.7366545 8.625 5.4375 C5.65235442 2.67718624 3.97678555 2.27745015 0 2 C0 1.34 0 0.68 0 0 Z " fill="#B87B43" transform="translate(193,99)"/>
<path d="M0 0 C0.33 0.66 0.66 1.32 1 2 C3.52733235 2.65555119 3.52733235 2.65555119 6 3 C6 4.32 6 5.64 6 7 C3.25 7.375 3.25 7.375 0 7 C-2.375 4 -2.375 4 -4 1 C-2.68 0.67 -1.36 0.34 0 0 Z " fill="#C5854C" transform="translate(174,217)"/>
<path d="M0 0 C0.66 0.99 1.32 1.98 2 3 C1.505 3.61875 1.01 4.2375 0.5 4.875 C-1.19222773 6.83880904 -1.19222773 6.83880904 -1 9 C0.88316159 10.10836423 0.88316159 10.10836423 3 11 C3.66 10.67 4.32 10.34 5 10 C5.66 10.66 6.32 11.32 7 12 C3.75 12.8125 3.75 12.8125 0 13 C-2.4375 10.5625 -2.4375 10.5625 -4 8 C-2.87548273 5.0280615 -1.77706209 2.66559313 0 0 Z " fill="#673210" transform="translate(186,112)"/>
<path d="M0 0 C-2.58122508 0.84039886 -5.16463901 1.67250556 -7.75 2.5 C-8.47960937 2.73847656 -9.20921875 2.97695312 -9.9609375 3.22265625 C-10.66992188 3.44824219 -11.37890625 3.67382812 -12.109375 3.90625 C-13.08342285 4.22045898 -13.08342285 4.22045898 -14.07714844 4.54101562 C-16 5 -16 5 -20 5 C-20 4.34 -20 3.68 -20 3 C-17.41932437 2.30081695 -14.83627153 1.61538951 -12.25 0.9375 C-11.15558594 0.63875977 -11.15558594 0.63875977 -10.0390625 0.33398438 C-6.28968956 -0.63744407 -3.69725762 -1.15449387 0 0 Z " fill="#AE7B4F" transform="translate(286,249)"/>
<path d="M0 0 C2.62599001 1.06290072 3.73564149 2.03503049 5.625 4.0625 C4.43003906 3.97548828 4.43003906 3.97548828 3.2109375 3.88671875 C-3.9772161 3.38727021 -3.9772161 3.38727021 -10.125 6.5625 C-10.8675 7.3875 -11.61 8.2125 -12.375 9.0625 C-12.375 8.0725 -12.375 7.0825 -12.375 6.0625 C-8.72795346 2.65858989 -5.03853822 0.09330626 0 0 Z " fill="#AC703E" transform="translate(253.375,117.9375)"/>
<path d="M0 0 C1.19908285 3.46848797 0.78945844 5.59994812 -0.3125 9.0625 C-0.57675781 9.91972656 -0.84101563 10.77695313 -1.11328125 11.66015625 C-2 14 -2 14 -4 17 C-4.66 17 -5.32 17 -6 17 C-4.67594074 10.93139507 -2.67149708 5.60236281 0 0 Z " fill="#CC9E74" transform="translate(163,100)"/>
<path d="M0 0 C-8.00523372 4.08777892 -16.24351645 3.26866484 -25 3 C-25 2.67 -25 2.34 -25 2 C-21.58518736 1.46649143 -18.16796104 0.95041814 -14.75 0.4375 C-13.78191406 0.28603516 -12.81382812 0.13457031 -11.81640625 -0.02148438 C-10.88183594 -0.16005859 -9.94726562 -0.29863281 -8.984375 -0.44140625 C-8.12553711 -0.57232666 -7.26669922 -0.70324707 -6.38183594 -0.83813477 C-3.98957886 -1.0007082 -2.27197422 -0.71976511 0 0 Z " fill="#CCCDBF" transform="translate(329,204)"/>
<path d="M0 0 C1.09658936 3.28976808 0.79953138 4.71303767 0 8 C0.99 8.66 1.98 9.32 3 10 C3 10.66 3 11.32 3 12 C2.38125 12.12375 1.7625 12.2475 1.125 12.375 C-1.19120832 12.87197356 -1.19120832 12.87197356 -3 15 C-2.67 10.71 -2.34 6.42 -2 2 C-1.34 2 -0.68 2 0 2 C0 1.34 0 0.68 0 0 Z " fill="#D6CCBC" transform="translate(347,177)"/>
<path d="M0 0 C-0.80814651 1.33597652 -1.62163181 2.668725 -2.4375 4 C-2.88996094 4.7425 -3.34242188 5.485 -3.80859375 6.25 C-4.20175781 6.8275 -4.59492188 7.405 -5 8 C-5.33 8 -5.66 8 -6 8 C-6 6.02 -6 4.04 -6 2 C-7.98 2 -9.96 2 -12 2 C-12 1.67 -12 1.34 -12 1 C-10.37681021 0.63762737 -8.7513642 0.28534843 -7.125 -0.0625 C-6.22007812 -0.25972656 -5.31515625 -0.45695313 -4.3828125 -0.66015625 C-2 -1 -2 -1 0 0 Z " fill="#AA845B" transform="translate(338,208)"/>
<path d="M0 0 C0.77772405 2.33317216 1.42415568 4.61435923 2 7 C-4 7 -4 7 -7 6 C-2.25 1.125 -2.25 1.125 0 0 Z " fill="#C4D6D2" transform="translate(319,230)"/>
<path d="M0 0 C1.32 0.33 2.64 0.66 4 1 C3.67 3.31 3.34 5.62 3 8 C1.35 8 -0.3 8 -2 8 C-2 4.8734367 -1.4292493 3.67984243 0 1 C0 0.67 0 0.34 0 0 Z " fill="#BB7C46" transform="translate(242,216)"/>
<path d="M0 0 C7.26 0.66 14.52 1.32 22 2 C22 2.33 22 2.66 22 3 C18.89601022 3.08710289 15.79233452 3.14042309 12.6875 3.1875 C11.80642578 3.21263672 10.92535156 3.23777344 10.01757812 3.26367188 C8.74624023 3.27817383 8.74624023 3.27817383 7.44921875 3.29296875 C6.66893311 3.3086792 5.88864746 3.32438965 5.0847168 3.34057617 C3 3 3 3 0 0 Z " fill="#CBD2C3" transform="translate(189,206)"/>
<path d="M0 0 C3.49734228 0.38859359 6.65788261 0.88596087 10 2 C10 2.66 10 3.32 10 4 C6.97580475 3.41196203 3.98241547 2.77321882 1 2 C0.87625 2.598125 0.7525 3.19625 0.625 3.8125 C0 6 0 6 -2 9 C-1.125 1.125 -1.125 1.125 0 0 Z " fill="#69370F" transform="translate(322,147)"/>
<path d="M0 0 C0.66 0 1.32 0 2 0 C2 1.98 2 3.96 2 6 C4.64 6 7.28 6 10 6 C10 6.66 10 7.32 10 8 C8.54207116 8.05399736 7.08357288 8.09279177 5.625 8.125 C4.81289062 8.14820312 4.00078125 8.17140625 3.1640625 8.1953125 C1 8 1 8 -1 6 C-0.625 2.875 -0.625 2.875 0 0 Z " fill="#68330B" transform="translate(230,83)"/>
<path d="M0 0 C0.56654297 0.63228516 0.56654297 0.63228516 1.14453125 1.27734375 C6.30792556 6.41655355 10.86618426 6.97419958 18 7 C18 7.33 18 7.66 18 8 C15.93816367 8.08150744 13.87538651 8.1394194 11.8125 8.1875 C10.66394531 8.22230469 9.51539063 8.25710937 8.33203125 8.29296875 C4.69371452 7.97306986 2.8491078 7.25377184 0 5 C-0.3125 2.3125 -0.3125 2.3125 0 0 Z " fill="#FBEDD7" transform="translate(191,216)"/>
<path d="M0 0 C1.7074998 1.28062485 3.37373596 2.61767557 5 4 C5 4.66 5 5.32 5 6 C5.9590625 6.433125 5.9590625 6.433125 6.9375 6.875 C9 8 9 8 10 10 C8.68 10 7.36 10 6 10 C6 9.01 6 8.02 6 7 C4.35 7 2.7 7 1 7 C1 6.01 1 5.02 1 4 C0.6937566 2.66018514 0.36548445 1.32488113 0 0 Z " fill="#B67B47" transform="translate(214,219)"/>
<path d="M0 0 C2.97 0 5.94 0 9 0 C7.68 0.33 6.36 0.66 5 1 C4.31292445 3.49064888 4 5.37886292 4 8 C0 3.375 0 3.375 0 0 Z " fill="#BC8D5D" transform="translate(191,213)"/>
<path d="M0 0 C0.66 0.66 1.32 1.32 2 2 C0.02 4.97 -1.96 7.94 -4 11 C-4.66 9.68 -5.32 8.36 -6 7 C-4.55802132 4.11604263 -2.29355765 2.23474848 0 0 Z " fill="#B87C43" transform="translate(187,107)"/>
<path d="M0 0 C4.43090471 1.20842856 6.98112756 2.51668565 10 6 C7 7 7 7 4.4375 6.375 C1.41184947 4.66822278 0.94641013 3.26941682 0 0 Z " fill="#D4AA7E" transform="translate(294,63)"/>
<path d="M0 0 C1.32 0.33 2.64 0.66 4 1 C-2.15034169 8.48291572 -2.15034169 8.48291572 -6 11 C-6 10.01 -6 9.02 -6 8 C-5.34 8 -4.68 8 -4 8 C-4 7.01 -4 6.02 -4 5 C-3.01 5 -2.02 5 -1 5 C-1 4.34 -1 3.68 -1 3 C-0.34 3 0.32 3 1 3 C0.67 2.01 0.34 1.02 0 0 Z " fill="#AA8157" transform="translate(326,218)"/>
<path d="M0 0 C0.99 0.33 1.98 0.66 3 1 C3 1.66 3 2.32 3 3 C4.98 2.34 6.96 1.68 9 1 C9.99 1.99 10.98 2.98 12 4 C8.78548731 5.60725635 5.56387464 5.05748185 2 5 C1.34 3.35 0.68 1.7 0 0 Z " fill="#592C0D" transform="translate(278,219)"/>
<path d="M0 0 C3 0.125 3 0.125 4 1.125 C4.04080783 3.12458364 4.04254356 5.12545254 4 7.125 C3.67 6.465 3.34 5.805 3 5.125 C1.6846659 4.42348848 0.34882408 3.75974075 -1 3.125 C-1.99 2.465 -2.98 1.805 -4 1.125 C-3 0.125 -3 0.125 0 0 Z " fill="#B37139" transform="translate(296,195.875)"/>
<path d="M0 0 C0.66 0.33 1.32 0.66 2 1 C1.40049704 4.68266103 0.75241109 8.34543185 0 12 C-2.08901197 8.60535554 -2.34361606 5.95158471 -2 2 C-1.34 1.34 -0.68 0.68 0 0 Z " fill="#BF926B" transform="translate(349,165)"/>
<path d="M0 0 C0.33 0 0.66 0 1 0 C1.46450943 6.50313209 0.32575612 10.4174808 -3 16 C-4.31225809 12.06322574 -3.3393954 10.2205738 -2.0625 6.3125 C-1.68222656 5.13300781 -1.30195313 3.95351562 -0.91015625 2.73828125 C-0.60980469 1.83464844 -0.30945313 0.93101563 0 0 Z " fill="#DEBD9E" transform="translate(155,121)"/>
<path d="M0 0 C-0.33 1.65 -0.66 3.3 -1 5 C-3.64 5 -6.28 5 -9 5 C-2.87096774 0 -2.87096774 0 0 0 Z " fill="#A26533" transform="translate(235,184)"/>
<path d="M0 0 C1.5625 1.1875 1.5625 1.1875 3 3 C2.6875 5.6875 2.6875 5.6875 2 8 C1.01 8 0.02 8 -1 8 C-1.33 5.69 -1.66 3.38 -2 1 C-1.34 0.67 -0.68 0.34 0 0 Z " fill="#663211" transform="translate(291,164)"/>
<path d="M0 0 C0.33 0 0.66 0 1 0 C1.25 5.625 1.25 5.625 -1 9 C-2.65 8.67 -4.3 8.34 -6 8 C-5.195625 7.236875 -4.39125 6.47375 -3.5625 5.6875 C-0.83200976 3.20569102 -0.83200976 3.20569102 0 0 Z " fill="#67330C" transform="translate(333,161)"/>
<path d="M0 0 C0.33 0.99 0.66 1.98 1 3 C-0.6875 5.0625 -0.6875 5.0625 -3 7 C-5.75 6.75 -5.75 6.75 -8 6 C-5.63379989 3.38472619 -3.057952 1.73559438 0 0 Z " fill="#683714" transform="translate(174,152)"/>
<path d="M0 0 C0.33 0 0.66 0 1 0 C1.02698189 1.62490954 1.04638757 3.24994633 1.0625 4.875 C1.07410156 5.77992188 1.08570313 6.68484375 1.09765625 7.6171875 C1 10 1 10 0 12 C-0.22467831 13.53668865 -0.40796805 15.07968054 -0.5625 16.625 C-0.64628906 17.44226563 -0.73007813 18.25953125 -0.81640625 19.1015625 C-0.87699219 19.72804687 -0.93757812 20.35453125 -1 21 C-1.33 21 -1.66 21 -2 21 C-2.02686553 19.02090602 -2.04633375 17.04171029 -2.0625 15.0625 C-2.07410156 13.96035156 -2.08570313 12.85820312 -2.09765625 11.72265625 C-2 9 -2 9 -1 8 C-0.76924918 6.65252916 -0.58846937 5.29622435 -0.4375 3.9375 C-0.293125 2.638125 -0.14875 1.33875 0 0 Z " fill="#BD834C" transform="translate(150,142)"/>
<path d="M0 0 C3.81287042 1.44626119 5.32707177 3.30194812 7 7 C6.57421875 9.1640625 6.57421875 9.1640625 6 11 C4.9944239 9.54550599 3.99569565 8.08627557 3 6.625 C2.443125 5.81289062 1.88625 5.00078125 1.3125 4.1640625 C0 2 0 2 0 0 Z " fill="#B66D2E" transform="translate(324,94)"/>
<path d="M0 0 C2 1 4 2 6 3 C6 3.66 6 4.32 6 5 C6.66 5 7.32 5 8 5 C7.34 6.32 6.68 7.64 6 9 C5.34 8.67 4.68 8.34 4 8 C4.33 7.01 4.66 6.02 5 5 C3.68 4.67 2.36 4.34 1 4 C0.67 2.68 0.34 1.36 0 0 Z " fill="#D4AA81" transform="translate(304,69)"/>
<path d="M0 0 C0 0.99 0 1.98 0 3 C-1.24176695 3.70226141 -2.49385599 4.38629109 -3.75 5.0625 C-4.79414063 5.63677734 -4.79414063 5.63677734 -5.859375 6.22265625 C-8 7 -8 7 -12 6 C-8.04 4.02 -4.08 2.04 0 0 Z " fill="#E8D4C0" transform="translate(307,238)"/>
<path d="M0 0 C4.55737263 0.43820891 7.57653445 0.85041169 11 4 C10.67 4.66 10.34 5.32 10 6 C9.01 6 8.02 6 7 6 C6.34 5.01 5.68 4.02 5 3 C1.93443402 2.26656572 1.93443402 2.26656572 -1 2 C-0.67 1.34 -0.34 0.68 0 0 Z " fill="#6E3614" transform="translate(288,197)"/>
<path d="M0 0 C0 0.33 0 0.66 0 1 C-6.02596573 2.0712828 -11.88909517 2.09945415 -18 2 C-18 1.67 -18 1.34 -18 1 C-11.59233959 -0.83292414 -6.58723293 -1.04559253 0 0 Z " fill="#DEEDEE" transform="translate(282,452)"/>
<path d="M0 0 C3.125 -0.375 3.125 -0.375 6 0 C7 1 7 1 7.0625 3.5625 C7.041875 4.366875 7.02125 5.17125 7 6 C6.5978125 5.0409375 6.5978125 5.0409375 6.1875 4.0625 C5.11332248 1.66868314 5.11332248 1.66868314 2 1 C1.67 1.99 1.34 2.98 1 4 C-1.0625 4.6875 -1.0625 4.6875 -3 5 C-1.875 2.5 -1.875 2.5 0 0 Z " fill="#FDF2D9" transform="translate(240,225)"/>
<path d="M0 0 C2.64 0.33 5.28 0.66 8 1 C5.44931155 3.35448165 4.28982642 3.98327924 0.75 4.1875 C-0.1575 4.125625 -1.065 4.06375 -2 4 C-1.34 2.68 -0.68 1.36 0 0 Z " fill="#C98241" transform="translate(196,214)"/>
<path d="M0 0 C0.66 0 1.32 0 2 0 C1 3 1 3 -1 4 C-3.71760108 4.07181821 -6.40859388 4.09299506 -9.125 4.0625 C-9.87910156 4.05798828 -10.63320313 4.05347656 -11.41015625 4.04882812 C-13.27347127 4.03703499 -15.13674555 4.01909942 -17 4 C-17 3.67 -17 3.34 -17 3 C-15.94039063 2.95101562 -14.88078125 2.90203125 -13.7890625 2.8515625 C-12.40101503 2.77653291 -11.01299549 2.70098515 -9.625 2.625 C-8.57699219 2.57859375 -8.57699219 2.57859375 -7.5078125 2.53125 C-3.29814173 2.40500502 -3.29814173 2.40500502 0 0 Z " fill="#BF834D" transform="translate(278,204)"/>
<path d="M0 0 C0.66 0 1.32 0 2 0 C2 4 2 4 0.125 6.25 C-2 8 -2 8 -4 8 C-2.25 2.25 -2.25 2.25 0 0 Z " fill="#5C2B0E" transform="translate(286,199)"/>
<path d="M0 0 C2.66666667 2.66666667 5.33333333 5.33333333 8 8 C7.01 8.495 7.01 8.495 6 9 C3.4375 7.9375 3.4375 7.9375 1 6 C0.1875 2.8125 0.1875 2.8125 0 0 Z " fill="#A46B36" transform="translate(286,107)"/>
<path d="M0 0 C1.62723299 0.45034123 3.25173664 0.91055354 4.875 1.375 C5.77992188 1.63023437 6.68484375 1.88546875 7.6171875 2.1484375 C10 3 10 3 12 5 C7.6822542 4.49202991 3.96697886 3.80317221 0 2 C0 1.34 0 0.68 0 0 Z " fill="#FCEFDC" transform="translate(231,239)"/>
<path d="M0 0 C0.33 1.32 0.66 2.64 1 4 C-2.21451269 5.60725635 -5.43612536 5.05748185 -9 5 C-7.875 3.4375 -7.875 3.4375 -6 2 C-2.8125 2.3125 -2.8125 2.3125 0 3 C0 2.01 0 1.02 0 0 Z " fill="#5C422B" transform="translate(299,203)"/>
<path d="M0 0 C2.89932357 2.39509338 3.50168276 4.31245243 4 8 C2.35 8 0.7 8 -1 8 C-0.67 7.34 -0.34 6.68 0 6 C0.039992 4.00039988 0.04346799 1.99952758 0 0 Z " fill="#F3ECDA" transform="translate(185,198)"/>
<path d="M0 0 C1.65 0.33 3.3 0.66 5 1 C4.67 1.66 4.34 2.32 4 3 C3.34 3 2.68 3 2 3 C1.67 3.99 1.34 4.98 1 6 C0.01 5.01 -0.98 4.02 -2 3 C-1.34 2.67 -0.68 2.34 0 2 C0 1.34 0 0.68 0 0 Z " fill="#BB7C45" transform="translate(162,155)"/>
<path d="M0 0 C0.66 0 1.32 0 2 0 C2.33 1.98 2.66 3.96 3 6 C0.36 5.67 -2.28 5.34 -5 5 C-5 4.67 -5 4.34 -5 4 C-3.35 4 -1.7 4 0 4 C-0.33 3.01 -0.66 2.02 -1 1 C-0.67 0.67 -0.34 0.34 0 0 Z " fill="#BC966D" transform="translate(173,198)"/>
<path d="M0 0 C0.928125 0.495 1.85625 0.99 2.8125 1.5 C5.86527516 3.21289852 5.86527516 3.21289852 9 3 C9 3.66 9 4.32 9 5 C4.25 6.125 4.25 6.125 2 5 C2 4.34 2 3.68 2 3 C1.34 3 0.68 3 0 3 C0 2.01 0 1.02 0 0 Z " fill="#A36839" transform="translate(273,175)"/>
<path d="M0 0 C0.45375 0.639375 0.9075 1.27875 1.375 1.9375 C5.25013836 4.98225157 9.1922647 4.81649865 14 5 C14 5.33 14 5.66 14 6 C12.22950311 6.05410687 10.45853151 6.09284119 8.6875 6.125 C7.20830078 6.15980469 7.20830078 6.15980469 5.69921875 6.1953125 C3 6 3 6 0 4 C0 2.68 0 1.36 0 0 Z " fill="#BA7C4D" transform="translate(182,120)"/>
<path d="M0 0 C3.80666984 1.44390925 5.26602582 3.34952803 7 7 C6.67 7.66 6.34 8.32 6 9 C0.42857143 3.85714286 0.42857143 3.85714286 0 0 Z " fill="#C39B7A" transform="translate(340,112)"/>
<path d="M0 0 C2.52588702 2.36292656 3.88820837 3.66462511 5 7 C4.01 7 3.02 7 2 7 C1.67 5.35 1.34 3.7 1 2 C0.34 2 -0.32 2 -1 2 C-1.33 2.66 -1.66 3.32 -2 4 C-2.33 3.01 -2.66 2.02 -3 1 C-2.01 0.67 -1.02 0.34 0 0 Z " fill="#B5753E" transform="translate(275,216)"/>
<path d="M0 0 C0.33 0.66 0.66 1.32 1 2 C0.67 2.66 0.34 3.32 0 4 C0.66 4.33 1.32 4.66 2 5 C-0.31 5.33 -2.62 5.66 -5 6 C-5 5.34 -5 4.68 -5 4 C-3.37373596 2.61767557 -1.7074998 1.28062485 0 0 Z " fill="#633E22" transform="translate(282,203)"/>
<path d="M0 0 C0.66 0 1.32 0 2 0 C4.15305957 3.85756507 5.39253254 6.55129785 5 11 C0 3.5 0 3.5 0 0 Z " fill="#B5895C" transform="translate(153,185)"/>
<path d="M0 0 C4 4.625 4 4.625 4 8 C1.525 7.01 1.525 7.01 -1 6 C-0.67 4.02 -0.34 2.04 0 0 Z " fill="#C58F5D" transform="translate(165,181)"/>
<path d="M0 0 C0.66 0.33 1.32 0.66 2 1 C-0.00979059 4.01468588 -0.70736015 4.83789182 -4 6 C-6.1328125 5.546875 -6.1328125 5.546875 -8 5 C-6.71475739 4.13619741 -5.42157581 3.28419631 -4.125 2.4375 C-3.04605469 1.72400391 -3.04605469 1.72400391 -1.9453125 0.99609375 C-1.30335938 0.66738281 -0.66140625 0.33867188 0 0 Z " fill="#D7B38E" transform="translate(208,63)"/>
<path d="M0 0 C0.66 0 1.32 0 2 0 C1.67 3.63 1.34 7.26 1 11 C0.67 11 0.34 11 0 11 C-0.19406478 9.35492782 -0.38007935 7.70890406 -0.5625 6.0625 C-0.66691406 5.14597656 -0.77132813 4.22945312 -0.87890625 3.28515625 C-0.91886719 2.53105469 -0.95882813 1.77695313 -1 1 C-0.67 0.67 -0.34 0.34 0 0 Z " fill="#E0EDEF" transform="translate(347,248)"/>
<path d="M0 0 C0.33 0.66 0.66 1.32 1 2 C0.67 2.99 0.34 3.98 0 5 C-1.32303717 5.3721042 -2.65737935 5.70630173 -4 6 C-4.33 6.66 -4.66 7.32 -5 8 C-5.66 7.34 -6.32 6.68 -7 6 C-4.69 4.02 -2.38 2.04 0 0 Z " fill="#AC7042" transform="translate(237,224)"/>
<path d="M0 0 C0.33 0.66 0.66 1.32 1 2 C1.66 2.33 2.32 2.66 3 3 C1.68 5.31 0.36 7.62 -1 10 C-1.66 9.67 -2.32 9.34 -3 9 C-2.01 6.03 -1.02 3.06 0 0 Z " fill="#AC6E3F" transform="translate(335,160)"/>
<path d="M0 0 C0.33 0.66 0.66 1.32 1 2 C0.67 2.99 0.34 3.98 0 5 C-2.31 5.33 -4.62 5.66 -7 6 C-5.62209707 3.24419414 -3.62850007 2.51138754 -1 1 C-0.67 0.67 -0.34 0.34 0 0 Z " fill="#B16E34" transform="translate(211,120)"/>
<path d="M0 0 C1.0326802 2.78823655 1.04509293 3.8677274 0.0625 6.75 C-0.288125 7.4925 -0.63875 8.235 -1 9 C-1.66 9 -2.32 9 -3 9 C-2.44271087 5.65626525 -1.64826111 2.96687001 0 0 Z " fill="#D0A67F" transform="translate(163,100)"/>
<path d="M0 0 C1.485 0.99 1.485 0.99 3 2 C2.67 5.3 2.34 8.6 2 12 C1.67 12 1.34 12 1 12 C0.67 8.04 0.34 4.08 0 0 Z " fill="#DDEDEF" transform="translate(151,251)"/>
<path d="M0 0 C-1.98 1.32 -3.96 2.64 -6 4 C-6.66 3.34 -7.32 2.68 -8 2 C-7.34 2 -6.68 2 -6 2 C-6 1.34 -6 0.68 -6 0 C-3.50907189 -1.24546405 -2.58919267 -0.7767578 0 0 Z " fill="#B38459" transform="translate(313,235)"/>
<path d="M0 0 C2.12038635 2.61514317 4.13091744 5.19637616 6 8 C4.68 8 3.36 8 2 8 C0.23537317 4.91190305 0 3.76687864 0 0 Z " fill="#D3D3C6" transform="translate(167,214)"/>
<path d="M0 0 C0 2.31 0 4.62 0 7 C-1.65 5.35 -3.3 3.7 -5 2 C-1.125 0 -1.125 0 0 0 Z " fill="#BB8753" transform="translate(175,217)"/>
<path d="M0 0 C0.33 0.99 0.66 1.98 1 3 C0 4 0 4 -2.72265625 4.09765625 C-4.37587891 4.08025391 -4.37587891 4.08025391 -6.0625 4.0625 C-7.16722656 4.05347656 -8.27195313 4.04445312 -9.41015625 4.03515625 C-10.69212891 4.01775391 -10.69212891 4.01775391 -12 4 C-12 3.67 -12 3.34 -12 3 C-10.95199219 2.92652344 -10.95199219 2.92652344 -9.8828125 2.8515625 C-8.97273437 2.77679688 -8.06265625 2.70203125 -7.125 2.625 C-6.22007812 2.55539063 -5.31515625 2.48578125 -4.3828125 2.4140625 C-1.82058097 2.20431868 -1.82058097 2.20431868 0 0 Z " fill="#602B06" transform="translate(184,173)"/>
<path d="M0 0 C2.76223278 2.76223278 2.57856291 5.20706617 3 9 C0.9375 7.3125 0.9375 7.3125 -1 5 C-0.75 2.25 -0.75 2.25 0 0 Z " fill="#703B13" transform="translate(286,101)"/>
<path d="M0 0 C0.33 0 0.66 0 1 0 C0.67 3.3 0.34 6.6 0 10 C-0.33 10 -0.66 10 -1 10 C-1.9765625 3.9453125 -1.9765625 3.9453125 -2 2 C-1.34 1.34 -0.68 0.68 0 0 Z " fill="#D9EAEB" transform="translate(341,303)"/>
<path d="M0 0 C0.78375 0.04125 1.5675 0.0825 2.375 0.125 C1.0625 1.625 1.0625 1.625 -0.625 3.125 C-1.615 3.125 -2.605 3.125 -3.625 3.125 C-3.955 4.445 -4.285 5.765 -4.625 7.125 C-4.75 4.75 -4.75 4.75 -4.625 2.125 C-2.625 0.125 -2.625 0.125 0 0 Z " fill="#FBEDD7" transform="translate(179.625,194.875)"/>
<path d="M0 0 C3.37503669 1.1858237 5.64722731 2.27573689 8 5 C5.36 4.34 2.72 3.68 0 3 C0 2.01 0 1.02 0 0 Z " fill="#B87D47" transform="translate(326,145)"/>
<path d="M0 0 C-1.375 2 -1.375 2 -3 4 C-3.66 4 -4.32 4 -5 4 C-5 3.34 -5 2.68 -5 2 C-5.66 1.67 -6.32 1.34 -7 1 C-3.375 -1.125 -3.375 -1.125 0 0 Z " fill="#B47843" transform="translate(310,121)"/>
<path d="M0 0 C0.33 0 0.66 0 1 0 C0.67 2.31 0.34 4.62 0 7 C-1.32 7.33 -2.64 7.66 -4 8 C-2.68 5.36 -1.36 2.72 0 0 Z " fill="#A06737" transform="translate(259,81)"/>
</svg>
